.<?xml version="1.0" encoding="utf-8"?>
<!-- Generator: Adobe Illustrator 22.0.0, SVG Export Plug-In . SVG Version: 6.00 Build 0)  -->
<svg version="1.1" id="Layer_1" xmlns="http://www.w3.org/2000/svg" xmlns:xlink="http://www.w3.org/1999/xlink" x="0px" y="0px"
	 viewBox="0 0 1553.4 250.7" style="enable-background:new 0 0 1553.4 250.7;" xml:space="preserve">
<style type="text/css">
	.st0{display:none;}
	.st1{display:inline;}
	.st2{opacity:0.52;fill:url(#SVGID_1_);enable-background:new    ;}
	.st3{opacity:0.47;fill:url(#SVGID_2_);enable-background:new    ;}
	.st4{opacity:0.45;fill:url(#SVGID_3_);enable-background:new    ;}
	.st5{fill:url(#SVGID_4_);}
	.st6{opacity:0.74;}
	.st7{fill:url(#SVGID_5_);}
	.st8{display:inline;fill:#616160;}
	.st9{display:inline;opacity:0.42;fill:#E0E589;enable-background:new    ;}
	.st10{opacity:0.2;}
	.st11{fill:#030304;}
	.st12{opacity:0.2;fill:#030304;enable-background:new    ;}
	.st13{fill:#F4DEED;}
	.st14{fill:#DBBFDD;}
	.st15{fill:#FBF8FC;}
	.st16{fill:#020203;}
	.st17{fill:#DBDABF;}
	.st18{fill:#C5C2B3;}
	.st19{fill:#CCCCE8;stroke:#010202;stroke-width:4;stroke-miterlimit:10;}
	.st20{fill:#CCCCE8;}
	.st21{fill:#A9A9C9;}
	.st22{fill:#FFFFFF;}
</style>
<g id="Layer_5" class="st0">
	<g class="st1">
		<rect x="321.1" y="-0.1" width="865" height="249.5"/>
		
			<radialGradient id="SVGID_1_" cx="436.2926" cy="417.9114" r="687.4807" gradientTransform="matrix(0.6329 0 0 1.0636 474.4383 -226.9841)" gradientUnits="userSpaceOnUse">
			<stop  offset="0" style="stop-color:#FFFFFF"/>
			<stop  offset="9.543378e-03" style="stop-color:#F9FBFE"/>
			<stop  offset="7.369971e-02" style="stop-color:#D4E3F4"/>
			<stop  offset="0.1357" style="stop-color:#B4D0EB"/>
			<stop  offset="0.1943" style="stop-color:#9CC3E5"/>
			<stop  offset="0.2479" style="stop-color:#8CBBE1"/>
			<stop  offset="0.2921" style="stop-color:#87B9E0"/>
			<stop  offset="0.6461" style="stop-color:#0C62AA"/>
			<stop  offset="0.8416" style="stop-color:#1F4C7C"/>
			<stop  offset="1" style="stop-color:#203A59"/>
		</radialGradient>
		<rect x="321.1" y="-0.1" class="st2" width="865" height="249.5"/>
		
			<radialGradient id="SVGID_2_" cx="416.8858" cy="412.9388" r="622.9128" gradientTransform="matrix(0.6329 0 0 1.0636 474.4383 -226.9841)" gradientUnits="userSpaceOnUse">
			<stop  offset="0" style="stop-color:#FFFFFF"/>
			<stop  offset="1.174567e-02" style="stop-color:#F9FBFE"/>
			<stop  offset="9.070715e-02" style="stop-color:#D4E3F4"/>
			<stop  offset="0.1671" style="stop-color:#B4D0EB"/>
			<stop  offset="0.2391" style="stop-color:#9CC3E5"/>
			<stop  offset="0.3051" style="stop-color:#8CBBE1"/>
			<stop  offset="0.3595" style="stop-color:#87B9E0"/>
			<stop  offset="0.8539" style="stop-color:#0C62AA"/>
			<stop  offset="0.9006" style="stop-color:#1D4C80"/>
			<stop  offset="1" style="stop-color:#172031"/>
		</radialGradient>
		<rect x="321.1" y="-0.1" class="st3" width="865" height="249.5"/>
		
			<radialGradient id="SVGID_3_" cx="436.2926" cy="397.9504" r="654.2682" fx="-217.851" fy="385.1822" gradientTransform="matrix(0.6329 0 0 1.0636 474.4383 -226.9841)" gradientUnits="userSpaceOnUse">
			<stop  offset="0" style="stop-color:#FFFFFF"/>
			<stop  offset="1.853617e-02" style="stop-color:#F9FBFE"/>
			<stop  offset="0.1431" style="stop-color:#D4E3F4"/>
			<stop  offset="0.2636" style="stop-color:#B4D0EB"/>
			<stop  offset="0.3773" style="stop-color:#9CC3E5"/>
			<stop  offset="0.4815" style="stop-color:#8CBBE1"/>
			<stop  offset="0.5674" style="stop-color:#87B9E0"/>
			<stop  offset="0.8539" style="stop-color:#0C62AA"/>
			<stop  offset="0.9006" style="stop-color:#1D4C80"/>
			<stop  offset="1" style="stop-color:#172031"/>
		</radialGradient>
		<rect x="321.1" y="-0.1" class="st4" width="865" height="249.5"/>
		<g>
			
				<radialGradient id="SVGID_4_" cx="744.1622" cy="214.7782" r="241.3456" gradientTransform="matrix(1 0 0 -1 0 249.8898)" gradientUnits="userSpaceOnUse">
				<stop  offset="0" style="stop-color:#FFFFFF"/>
				<stop  offset="1" style="stop-color:#CCD2E4"/>
			</radialGradient>
			<rect x="321.1" y="-0.1" class="st5" width="865" height="249.5"/>
		</g>
		<g class="st6">
			
				<radialGradient id="SVGID_5_" cx="763.0182" cy="52.0615" r="375.1532" gradientTransform="matrix(1 0 0 -1 0 249.8898)" gradientUnits="userSpaceOnUse">
				<stop  offset="0" style="stop-color:#FFFFFF"/>
				<stop  offset="1" style="stop-color:#87B9E0"/>
			</radialGradient>
			<rect x="321.1" y="-0.1" class="st7" width="865" height="249.5"/>
		</g>
	</g>
	<rect x="271" y="-6.5" class="st8" width="64" height="282"/>
</g>
<g id="Layer_6" class="st0">
	<polygon class="st9" points="1186.1,250.6 337.2,250.6 336.6,0.4 1186.1,0.4 	"/>
</g>
<g id="Layer_8">
	<g class="st10">
		<path class="st11" d="M606.7,126.1c-1.1,2.4-2.5,4.5-4.1,6.2c1,2.2,1.8,4.4,2.3,6.5c0.5,2.2,0.8,4.6,0.8,7.2c0,3.1-0.3,5.8-1,8.2
			s-1.5,4.8-2.6,7.5c-4.2,10.3-9,19.6-14.4,27.7c-5.3,8.1-11.2,15.1-17.5,20.7c-6.3,5.7-13,10-20.1,13.1c-7.1,3-14.6,4.6-22.4,4.6
			c-6,0-12.2-0.7-18.8-2.2c-6.6-1.5-12.9-3.8-18.9-7s-11.4-7.2-16.3-12.2c-4.8-5-8.4-11-10.7-18c0-0.2-0.1-0.4-0.2-0.5
			c-1.7-4.5-3-9.1-3.7-13.9c-0.7-4.8-1.1-9.8-1.1-15c0-10.2,1.5-21.1,4.4-32.6s7.1-22.8,12.4-33.8s11.7-21.3,19.1-30.9
			s15.6-17.5,24.5-23.8c5-3.7,10.3-6.1,15.7-7.3c5.4-1.2,10.5-1.8,15.3-1.8c4.1,0,8.4,0.4,12.9,1.2c4.5,0.8,8.8,2,13,3.4
			c4.2,1.5,8.2,3.3,12,5.4c3.8,2.1,7.3,4.5,10.2,7.1c2.9,2.5,5.3,5.1,7.3,7.7c2,2.6,3.6,5.3,4.9,8.1c1.3,2.8,2.2,5.8,2.9,9
			s1.1,6.7,1.4,10.5v3.4c0,2.4-0.1,5-0.3,7.8s-0.5,5.6-0.9,8.4c-0.3,2.8-0.7,5.5-1.2,8.1s-0.9,4.9-1.4,7v1.5
			C609.1,120.9,607.9,123.7,606.7,126.1z M556.3,79.7l0.2,0.2c0.2,0.2,0.4,0.7,0.4,1.3c0.1,0.6,0.1,1.4,0.3,2.3v0.2
			c0,0.1,0,0.2,0.1,0.3c0.1,0.1,0.1,0.2,0.1,0.3V91c-0.1,0.7-0.2,1.3-0.3,1.9s-0.1,1.3-0.1,2.2c0,7.2,1.8,13.2,5.4,17.8
			s9.8,7.6,18.7,8.9c0.3,0,0.7,0,1.2,0.1s0.9,0.1,1.2,0.1c3,0,5.1-0.6,6.3-1.8c1.2-1.2,2.3-3.2,3.4-5.9V114c0.5-1.7,0.9-3.8,1.4-6.2
			c0.5-2.4,0.9-4.9,1.2-7.6c0.3-2.6,0.6-5.3,0.9-8c0.2-2.7,0.3-5.2,0.3-7.5v-2.9c-0.3-5-1.3-9.3-2.8-12.7s-4.2-6.8-7.8-10.1
			c-2.3-1.9-4.9-3.7-7.7-5.3c-2.9-1.6-5.9-3-9.2-4c-3.3-1.1-6.6-1.9-10-2.6c-3.4-0.6-6.7-0.9-9.9-0.9c-3.3,0-6.8,0.4-10.5,1.2
			s-7.1,2.4-10.3,4.6l0.2-0.2c-7.9,5.5-15.1,12.5-21.7,20.9c-6.5,8.4-12.2,17.5-16.9,27.3c-4.7,9.8-8.4,19.8-11,30.1s-4,19.9-4,29
			c0,4.2,0.3,8.3,0.9,12c0.6,3.8,1.5,7.3,2.8,10.7v-0.2c1.4,5.2,3.8,9.6,7.4,13.2c3.6,3.7,7.6,6.7,12.2,9s9.4,4.1,14.5,5.2
			c5.1,1.1,10,1.6,14.7,1.6c5.8,0,11.5-1.3,17-3.8s10.7-6.2,15.7-10.9c4.9-4.8,9.5-10.5,13.8-17.4c4.3-6.8,8.2-14.5,11.8-23.1
			c0.7-1.8,1.3-3.5,1.7-4.9c0.5-1.4,0.7-2.9,0.7-4.4c0-1.6-0.3-3.2-0.8-4.6c-0.5-1.5-1.3-3-2.3-4.6v0.2c-1.4-2.4-2.7-4.6-4-6.6
			s-2.8-3.7-4.3-5.2c-1.5-1.4-3.2-2.5-5.1-3.3c-1.8-0.7-4-1.1-6.4-1.1c-4.4,0-9.1,0.5-14.1,1.5s-10.1,2-15.3,3
			c-0.3,0.1-0.7,0.2-1.2,0.2c-0.3,0-0.6,0.1-0.9,0.2l0.5-0.2c-2.3,0.5-4.4,0.9-6.4,1.3s-3.6,1-4.8,1.8c0.1-0.2,0.2-0.5,0.3-0.7
			c0.1-0.2,0.2-0.5,0.3-0.7c2.5-6.2,5.3-12.1,8.3-17.8c3-5.7,5.9-10.7,8.9-15c2.9-4.4,5.7-7.9,8.3-10.5s4.9-4,6.7-4L556.3,79.7
			L556.3,79.7z M535.1,166.2c-1.7,2.5-3.3,4.7-5,6.6c-1.7,1.9-3.2,3.4-4.7,4.5s-2.9,1.6-4.3,1.6c-1.7,0-3-1.3-4-3.8
			c-0.9-2.5-1.4-6-1.4-10.3c0-4,0.4-8.4,1.1-13.2c0.7-4.8,1.9-9.6,3.5-14.4c1.3,6.7,3.4,11.7,6.5,15c3,3.4,7.4,5.3,13.2,5.8
			C538.4,160.9,536.8,163.7,535.1,166.2z"/>
		<path class="st11" d="M929.2,79.4v0.2c-2.5,7.9-5.3,17-8.3,27.3s-6,21-9,32s-6,21.9-8.9,32.8c-2.9,10.8-5.4,20.7-7.7,29.7
			c0,0.2,0,0.5-0.1,0.8s-0.1,0.5-0.1,0.8c-1.6,7.6-4.7,13.1-9.2,16.6s-10.5,5.2-17.8,5.2c-5.2,0-9.8-0.7-13.9-2
			c-4.1-1.3-8.1-2.7-11.9-4.2l0.5,0.2L841,218c-3.7-1.8-6.9-4.1-9.7-6.7c-2.8-2.6-5.2-5.6-7.3-8.9c-0.2,0.9-0.4,1.8-0.6,2.6
			c-0.2,0.8-0.4,1.6-0.6,2.4c-1,3.1-2.2,5.8-3.4,8c-1.3,2.2-2.8,4.1-4.6,5.6s-4,2.6-6.5,3.4c-2.5,0.7-5.6,1.1-9.1,1.1
			c-1.6,0-3.1-0.1-4.6-0.3c-1.4-0.2-3.1-0.6-4.9-1l-4.1-1.2c-3-0.9-6-2-9.2-3.2s-6.3-3-9.4-5.2l-0.3-0.3c-4.6-3-7.9-6.3-10-10
			s-3.1-8.4-3.1-14.3c0-1.3,0.1-2.6,0.2-4c0.1-1.4,0.3-2.9,0.7-4.6v-0.5c0.7-3.6,1.7-8.4,3.1-14.6c1.4-6.2,3-13.1,4.9-20.8
			s4-15.9,6.2-24.5c2.2-8.7,4.5-17.2,6.9-25.5c2.4-8.4,4.6-16.3,6.8-23.8s4.2-14.1,6.2-19.7c2.6-7.1,6.2-12.2,10.7-15.4
			c4.5-3.2,10-4.7,16.7-4.7c2.3,0,5,0.3,8.1,1s6.3,1.5,9.5,2.6c3.3,1,6.5,2.2,9.5,3.5c3.1,1.3,5.8,2.6,8.1,3.9l0.2,0.2
			c0.1,0,0.2,0.1,0.3,0.2c3.8,1.8,6.8,3.7,9.1,5.7c2.3-5.8,5.5-10.1,9.5-12.9c4.1-2.8,9.4-4.1,15.9-4.1c1.3,0,2.3,0.1,3.2,0.2
			s1.8,0.3,2.8,0.5c0.3,0.1,0.8,0.2,1.3,0.3s1,0.2,1.5,0.3c2.6,0.7,6,1.8,10.1,3.3s8.2,3.6,12.1,6.2c4,2.6,7.4,6,10.2,10
			c2.9,4,4.3,8.9,4.3,14.8c0,1.6-0.2,3.4-0.5,5.5s-0.9,4.1-1.7,6.2L929.2,79.4z M850.5,63.8c-1.4-2.5-4.1-4.5-8-6.1h0.2
			c-2-1-4.1-2.1-6.5-3.1s-4.9-2-7.4-2.8c-2.5-0.9-4.9-1.6-7.2-2.2c-2.3-0.6-4.2-0.9-5.8-0.9c-5.2,0-8.8,2.9-11,8.6
			c-1.8,5.5-3.9,12-6.1,19.4c-2.2,7.5-4.5,15.3-6.8,23.6s-4.5,16.6-6.7,25s-4.2,16.4-6.1,23.9c-1.9,7.5-3.5,14.3-4.9,20.4
			c-1.4,6.1-2.3,10.8-2.9,14.1l0.2-0.2c-0.2,1.1-0.4,2.1-0.4,3c-0.1,0.9-0.1,1.6-0.3,2.3c0,0-1,7.4,2.8,9.6c3.8,2.2,18,8.1,18,8.1
			h0.2c0,0.1,0.1,0.2,0.2,0.2l1.9,0.5c1.1,0.2,2.2,0.4,3,0.6c0.9,0.2,1.6,0.3,2.3,0.3c2.2,0,3.8-0.6,4.8-1.7c1-1.1,1.9-2.9,2.8-5.2
			c0.9-3.9,2-8.4,3.4-13.4c1.3-5,2.8-10.4,4.3-16s3.2-11.5,4.9-17.6s3.4-12.3,5.2-18.5c1.1,7.6,2.3,15,3.5,22.2s2.6,13.8,4.2,19.7
			c1.6,5.9,3.6,11,5.9,15.2c2.3,4.2,5.3,7.2,8.9,8.9c3.3,1.3,6.8,2.5,10.4,3.8c3.6,1.3,7.2,1.9,10.9,1.9c5.6,0,9-2.8,10.1-8.3
			l-0.2,0.2c1.5-6.1,3.2-12.6,5.1-19.7c1.9-7.1,3.8-14.4,5.8-21.9c2-7.6,4.1-15.2,6.2-22.9c2.1-7.7,4.2-15.2,6.4-22.5
			c2.1-7.3,4.2-14.3,6.1-21c1.9-6.6,3.8-12.7,5.5-18.1c0.5-1.1,0.8-2.2,0.9-3.3c0.2-1,0.3-2,0.3-2.9c0-2.6-0.9-4.9-2.8-6.9
			c-1.8-1.9-4-3.6-6.5-5.1c-2.5-1.4-5.1-2.6-7.7-3.5c-2.6-0.9-4.8-1.6-6.5-2.1c-1-0.2-2-0.4-2.8-0.6c-0.8-0.2-1.5-0.3-2.1-0.3
			c-5,0-8.5,2.8-10.3,8.4c-3,9.1-6,19-9.2,29.8s-6.2,22-9.2,33.5c-0.5-4.6-0.9-9.1-1.4-13.7c-0.5-4.5-0.9-8.8-1.2-12.8
			s-0.7-7.7-0.9-11c-0.3-3.3-0.5-6.1-0.6-8.4C852.9,69.8,852,66.3,850.5,63.8z"/>
		<path class="st11" d="M937.3,42.7c5.3-1.4,11.1-2.8,17.4-4.1c6.3-1.4,12.8-2.7,19.5-3.9s13.5-2.2,20.4-3.1s13.6-1.5,20.1-1.8h1.2
			c7.8,0,13.9,1.5,18.3,4.6s7.9,7.9,10.4,14.3l0.2,0.2c1.3,3.1,2.2,5.8,2.8,8.2c0.6,2.4,1.2,4.8,1.6,7.3c0.7,3,1,5.6,1,7.9
			c0,4.5-0.4,8.2-1.2,11.3c-0.8,3-2.2,5.6-4.1,7.6c-2,2-4.5,3.6-7.7,4.7s-7.3,2-12.2,2.6c-2,0.2-4,0.5-6,0.7c-2.1,0.2-4.1,0.5-6,0.7
			c2.4,2.3,4.6,5.4,6.5,9.5l0.3,0.3c1.8,3.4,3.2,6.8,4,10.1c0.9,3.3,1.7,6.7,2.5,10v0.5c0.2,1.1,0.4,2.2,0.5,3.2s0.2,1.9,0.2,2.8
			c0,7-1.4,12.2-4.3,15.7c-2.9,3.5-6.7,6-11.5,7.7c0.9,1.5,1.6,3,2.1,4.5c1.8,3.7,3.4,7.7,4.7,12.1c1.3,4.4,2,8.7,2,13
			c0,4.1-0.4,7.6-1.1,10.3c-0.7,2.8-2,5.1-3.7,7s-4,3.4-7,4.6c-2.9,1.1-6.5,2.2-10.8,3.1h0.3c-3.4,0.8-7,1.6-10.6,2.3
			s-7.3,1.5-10.9,2.3c-4,0.9-8,1.8-12,2.6s-7.8,1.7-11.6,2.6c-0.6,0.1-1.1,0.2-1.6,0.3s-1.1,0.1-1.6,0.3c-1.6,0.2-3.1,0.4-4.5,0.6
			c-1.4,0.2-2.7,0.3-4,0.3c-4.2,0-7.9-0.5-11-1.4s-5.9-2.2-8.4-3.9s-4.9-3.7-7.1-6c-2.2-2.4-4.7-5-7.3-8l-0.5-0.5
			c0-0.1-0.1-0.2-0.2-0.2c-3.1-3.3-5.5-7-7.3-10.9c-1.8-4-2.7-8.7-2.7-14.2c0-1.6,0.1-3.1,0.3-4.6c0.2-1.4,0.4-2.9,0.6-4.4
			l31.1-119.2L937.3,42.7z M944.2,60.6l-29.9,114.6c-0.3,1.7-0.5,3.4-0.5,5.2c0,3,0.5,5.5,1.4,7.6s2.2,4,3.8,5.7v-0.2
			c1.9,2.3,3.8,4.3,5.4,6.1c1.7,1.8,3.3,3.3,4.9,4.6c1.6,1.3,3.4,2.3,5.2,3c1.9,0.7,4.1,1,6.6,1c2.2,0,4.9-0.4,8.1-1.2l-0.2,0.2
			c7.2-1.6,14.7-3.2,22.4-4.9s15.3-3.3,22.6-4.9c3.3-0.7,5.6-1.5,6.9-2.6c1.3-1,1.9-2.9,1.9-5.5c0-3-0.5-6.1-1.6-9.5
			c-1.1-3.3-2.3-6.4-3.7-9.1v0.2c-1-2.8-2.5-4.7-4.4-5.9s-4.4-1.8-7.5-1.8c-5.2,0-10.1,0.3-14.7,1c-4.6,0.7-9.1,1.4-13.5,2.2
			c0.2-2.1,0.8-4.4,1.7-7.1c0.9-2.7,1.8-5.2,2.8-7.5c4-0.9,8.1-1.7,12.2-2.5c4.1-0.7,8.4-1.6,12.7-2.5h-0.2c3-0.5,5.9-0.9,8.7-1.3
			c2.8-0.4,5.3-0.9,7.4-1.6c2.1-0.7,3.8-1.6,5.2-2.8c1.3-1.2,2-2.8,2-4.7c0-1-0.2-2.4-0.7-4.1l0.2,0.2c-0.6-2.4-1.1-4.8-1.7-7.1
			c-0.6-2.3-1.5-4.8-2.9-7.5v0.2c-1.3-2.9-2.9-4.8-4.8-5.8c-2-1-4.6-1.5-7.9-1.5h-1.2c-5,0.1-10,0.5-15,1c1.6-4.4,3.2-8.7,4.6-13.2
			c1.5-4.4,2.9-8.5,4.3-12.3c7.1-1,13.8-1.9,20.1-2.7c6.3-0.7,12.4-1.4,18.4-2c3.8-0.5,6.4-1.3,7.7-2.6c1.4-1.3,2.1-3.4,2.1-6.5
			c0-1.6-0.2-3.2-0.7-4.6l0.2,0.2c-0.3-1.9-0.7-3.8-1.2-5.5c-0.5-1.7-1.3-3.9-2.4-6.5V56c-1-3-2.6-5.2-4.6-6.7s-4.8-2.2-8.5-2.2
			h-0.9c-6.1,0.2-12.2,0.7-18.4,1.5s-12.2,1.7-18.1,2.8c-5.9,1-11.6,2.1-17,3.4c-5.4,1.2-10.5,2.4-15,3.5L944.2,60.6z"/>
	</g>
	<path class="st12" d="M767,147.5c0,0-23.2,85.2-101.4,68.3c-25.6-5.5-49.3-17.9-61.6-35.9c-20-29.4-14.8-76,24.1-115.9
		c10-10.2,15.4-14.4,30.4-24.4l18.2,2.4c-15.4,7.5-41.3,28.2-55.9,52.6c-23,38.7-26.9,86.6,47.4,107.2c60.6,16.5,83.7-54,83.7-54
		L767,147.5z"/>
	<path class="st12" d="M606,195.4c72,65.7,121.3-3.9,121.3-3.9l31.1-22.2c0,0-15,35.6-45.9,52.1C682.9,237.2,638.6,236,606,195.4z"
		/>
</g>
<g id="Layer_1_1_">
	<polygon class="st13" points="945,44.5 908,176.5 934,210.5 1011,195.5 1011,169.5 1012,147.5 1021,139.5 1007,89.5 1041,80.5 
		1046,58.5 1031,32.5 	"/>
	<path class="st14" d="M983.3,81.2l23.8-0.8l36.3-7l-9.3-22.3c0,0,3.1,7.8-2.9,14.3c-2.5,2.7-12.4,4.4-21.8,6.6
		C996.3,75.2,983.3,81.2,983.3,81.2z"/>
	<path class="st14" d="M967,146.9l17.8-0.4l36.2-7l-9.3-22.3c0,0,3.1,7.8-2.9,14.3c-2.5,2.7-12.4,4.4-21.8,6.6
		C974,141.2,967,146.9,967,146.9z"/>
	<path class="st14" d="M946,56.8c-13.3,9.3-32.3,120.7-32.3,120.7l25.3,33.3l70-16.7l2.4-10.6l-5.7-11.4c0,0,0.7,8.3-6.7,11.7
		c-7.3,3.3-42.1,7-53,8.3c-6.8,0.8-18-13.3-17.7-21.7C928.7,162.2,959.3,47.5,946,56.8z"/>
	<polygon class="st13" points="808,36.5 792,82.5 767,171.5 774,199.5 812,209.5 825,178.5 845,207.5 884,210.5 903,146.5 929,61.5 
		915,43.5 882,34.5 871,64.5 854,42.5 	"/>
	<path class="st14" d="M868.3,86.2c-6.3,21.5-4.1,35.7-4.4,37.7c-0.3,2-2.3-10.8-2.5-24.5C861.1,85.6,874.6,64.6,868.3,86.2z"/>
	<path class="st14" d="M829.7,133.2c0,0,7.7,36,18.7,49.7c4.1,5.1,18,10.4,24,10.8c9.9,0.7,11.8-6.7,13.7-11.5
		c3-7.7,1.3,12.7,1.3,12.7l-8.7,14.7l-39.7-15l-11-44.7L829.7,133.2z"/>
	<path class="st14" d="M810.5,49c0,0-6.4,31-13.3,62.2c-6.7,30.6-14,61.3-12.2,67.3c4,13.7,26.2,19,28.5,9.8s-0.2,14-0.2,14
		l-8.5,6.8l-35-13.8l0.8-24.8L804,51.7L810.5,49z"/>
	<polygon class="st13" points="604,118.5 611,73.5 595,43.5 556,27.5 525,42.5 493,81.5 473,132.5 473,168.5 484,196.5 518,210.5 
		545,209.5 581,193.5 601,150.5 	"/>
	<path class="st14" d="M533.5,47c0,0-59,81-37,125.5c8,16.2,22.1,23.6,35.5,23.8c23.3,0.4,43.5-15.8,43.5-15.8l-19.5,28l-45,1.5
		l-25.5-11.5l-11.5-38l8.5-43.5l24-52.5L533.5,47z"/>
	<path class="st14" d="M562,78c0,0,0.5,15,8.5,23s20.5,16,27.3,9c2.2,9.2-10.8,10-10.8,10l-33-12.5L562,78z"/>
	<path class="st14" d="M533,121.5l-4.3,1.7L525,133l1,14.5l10.5,6.5c0,0,23.3-1.8,29.2-6.5c-3.5,2.1-26.1,3.4-31.2-6.7
		C530.5,132.8,533,121.5,533,121.5z"/>
	<g>
		<path d="M611.7,121.1c-1.1,2.4-2.5,4.5-4.1,6.2c1,2.2,1.8,4.4,2.3,6.5c0.5,2.2,0.8,4.6,0.8,7.2c0,3.1-0.3,5.8-1,8.2
			s-1.5,4.8-2.6,7.5c-4.2,10.3-9,19.6-14.4,27.7c-5.3,8.1-11.2,15.1-17.5,20.7c-6.3,5.7-13,10-20.1,13.1c-7.1,3-14.6,4.6-22.4,4.6
			c-6,0-12.2-0.7-18.8-2.2c-6.6-1.5-12.9-3.8-18.9-7s-11.4-7.2-16.3-12.2c-4.8-5-8.4-11-10.7-18c0-0.2-0.1-0.4-0.2-0.5
			c-1.7-4.5-3-9.1-3.7-13.9c-0.7-4.8-1.1-9.8-1.1-15c0-10.2,1.5-21.1,4.4-32.6s7.1-22.8,12.4-33.8s11.7-21.3,19.1-30.9
			s15.6-17.5,24.5-23.8c5-3.7,10.3-6.1,15.7-7.3c5.4-1.2,10.5-1.8,15.3-1.8c4.1,0,8.4,0.4,12.9,1.2c4.5,0.8,8.8,2,13,3.4
			c4.2,1.5,8.2,3.3,12,5.4s7.3,4.5,10.2,7.1c2.9,2.5,5.3,5.1,7.3,7.7c2,2.6,3.6,5.3,4.9,8.1c1.3,2.8,2.2,5.8,2.9,9
			c0.7,3.2,1.1,6.7,1.4,10.5v3.4c0,2.4-0.1,5-0.3,7.8s-0.5,5.6-0.9,8.4c-0.3,2.8-0.7,5.5-1.2,8.1s-0.9,4.9-1.4,7v1.5
			C614.1,115.9,612.9,118.7,611.7,121.1z M561.3,74.7l0.2,0.2c0.2,0.2,0.4,0.7,0.4,1.3c0.1,0.6,0.1,1.4,0.3,2.3v0.2
			c0,0.1,0,0.2,0.1,0.3c0.1,0.1,0.1,0.2,0.1,0.3V86c-0.1,0.7-0.2,1.3-0.3,1.9s-0.1,1.3-0.1,2.2c0,7.2,1.8,13.2,5.4,17.8
			s9.8,7.6,18.7,8.9c0.3,0,0.7,0,1.2,0.1s0.9,0.1,1.2,0.1c3,0,5.1-0.6,6.3-1.8c1.2-1.2,2.3-3.2,3.4-5.9V109c0.5-1.7,0.9-3.8,1.4-6.2
			c0.5-2.4,0.9-4.9,1.2-7.6c0.3-2.6,0.6-5.3,0.9-8c0.2-2.7,0.3-5.2,0.3-7.5v-2.9c-0.3-5-1.3-9.3-2.8-12.7s-4.2-6.8-7.8-10.1
			c-2.3-1.9-4.9-3.7-7.7-5.3c-2.9-1.6-5.9-3-9.2-4c-3.3-1.1-6.6-1.9-10-2.6c-3.4-0.6-6.7-0.9-9.9-0.9c-3.3,0-6.8,0.4-10.5,1.2
			s-7.1,2.4-10.3,4.6l0.2-0.2c-7.9,5.5-15.1,12.5-21.7,20.9c-6.5,8.4-12.2,17.5-16.9,27.3c-4.7,9.8-8.4,19.8-11,30.1s-4,19.9-4,29
			c0,4.2,0.3,8.3,0.9,12c0.6,3.8,1.5,7.3,2.8,10.7v-0.2c1.4,5.2,3.8,9.6,7.4,13.2c3.6,3.7,7.6,6.7,12.2,9s9.4,4.1,14.5,5.2
			c5.1,1.1,10,1.6,14.7,1.6c5.8,0,11.5-1.3,17-3.8s10.7-6.2,15.7-10.9c4.9-4.8,9.5-10.5,13.8-17.4c4.3-6.8,8.2-14.5,11.8-23.1
			c0.7-1.8,1.3-3.5,1.7-4.9c0.5-1.4,0.7-2.9,0.7-4.4c0-1.6-0.3-3.2-0.8-4.6c-0.5-1.5-1.3-3-2.3-4.6v0.2c-1.4-2.4-2.7-4.6-4-6.6
			s-2.8-3.7-4.3-5.2c-1.5-1.4-3.2-2.5-5.1-3.3c-1.8-0.7-4-1.1-6.4-1.1c-4.4,0-9.1,0.5-14.1,1.5s-10.1,2-15.3,3
			c-0.3,0.1-0.7,0.2-1.2,0.2c-0.3,0-0.6,0.1-0.9,0.2l0.5-0.2c-2.3,0.5-4.4,0.9-6.4,1.3s-3.6,1-4.8,1.8c0.1-0.2,0.2-0.5,0.3-0.7
			s0.2-0.5,0.3-0.7c2.5-6.2,5.3-12.1,8.3-17.8c3-5.7,5.9-10.7,8.9-15c2.9-4.4,5.7-7.9,8.3-10.5s4.9-4,6.7-4L561.3,74.7L561.3,74.7z
			 M540.1,161.2c-1.7,2.5-3.3,4.7-5,6.6c-1.7,1.9-3.2,3.4-4.7,4.5s-2.9,1.6-4.3,1.6c-1.7,0-3-1.3-4-3.8c-0.9-2.5-1.4-6-1.4-10.3
			c0-4,0.4-8.4,1.1-13.2c0.7-4.8,1.9-9.6,3.5-14.4c1.3,6.7,3.4,11.7,6.5,15c3,3.4,7.4,5.3,13.2,5.8
			C543.4,155.9,541.8,158.7,540.1,161.2z"/>
		<path d="M934.2,74.4v0.2c-2.5,7.9-5.3,17-8.3,27.3s-6,21-9,32s-6,21.9-8.9,32.8c-2.9,10.8-5.4,20.7-7.7,29.7c0,0.2,0,0.5-0.1,0.8
			s-0.1,0.5-0.1,0.8c-1.6,7.6-4.7,13.1-9.2,16.6s-10.5,5.2-17.8,5.2c-5.2,0-9.8-0.7-13.9-2c-4.1-1.3-8.1-2.7-11.9-4.2l0.5,0.2
			L846,213c-3.7-1.8-6.9-4.1-9.7-6.7c-2.8-2.6-5.2-5.6-7.3-8.9c-0.2,0.9-0.4,1.8-0.6,2.6c-0.2,0.8-0.4,1.6-0.6,2.4
			c-1,3.1-2.2,5.8-3.4,8c-1.3,2.2-2.8,4.1-4.6,5.6s-4,2.6-6.5,3.4c-2.5,0.7-5.6,1.1-9.1,1.1c-1.6,0-3.1-0.1-4.6-0.3
			c-1.4-0.2-3.1-0.6-4.9-1l-4.1-1.2c-3-0.9-6-2-9.2-3.2s-6.3-3-9.4-5.2l-0.3-0.3c-4.6-3-7.9-6.3-10-10s-3.1-8.4-3.1-14.3
			c0-1.3,0.1-2.6,0.2-4c0.1-1.4,0.3-2.9,0.7-4.6v-0.5c0.7-3.6,1.7-8.4,3.1-14.6c1.4-6.2,3-13.1,4.9-20.8s4-15.9,6.2-24.5
			c2.2-8.7,4.5-17.2,6.9-25.5c2.4-8.4,4.6-16.3,6.8-23.8s4.2-14.1,6.2-19.7c2.6-7.1,6.2-12.2,10.7-15.4s10-4.7,16.7-4.7
			c2.3,0,5,0.3,8.1,1s6.3,1.5,9.5,2.6c3.3,1,6.5,2.2,9.5,3.5c3.1,1.3,5.8,2.6,8.1,3.9l0.2,0.2c0.1,0,0.2,0.1,0.3,0.2
			c3.8,1.8,6.8,3.7,9.1,5.7c2.3-5.8,5.5-10.1,9.5-12.9c4.1-2.8,9.4-4.1,15.9-4.1c1.3,0,2.3,0.1,3.2,0.2s1.8,0.3,2.8,0.5
			c0.3,0.1,0.8,0.2,1.3,0.3c0.5,0.1,1,0.2,1.5,0.3c2.6,0.7,6,1.8,10.1,3.3s8.2,3.6,12.1,6.2c4,2.6,7.4,6,10.2,10
			c2.9,4,4.3,8.9,4.3,14.8c0,1.6-0.2,3.4-0.5,5.5c-0.3,2.1-0.9,4.1-1.7,6.2L934.2,74.4z M855.5,58.8c-1.4-2.5-4.1-4.5-8-6.1h0.2
			c-2-1-4.1-2.1-6.5-3.1s-4.9-2-7.4-2.8c-2.5-0.9-4.9-1.6-7.2-2.2c-2.3-0.6-4.2-0.9-5.8-0.9c-5.2,0-8.8,2.9-11,8.6
			c-1.8,5.5-3.9,12-6.1,19.4c-2.2,7.5-4.5,15.3-6.8,23.6s-4.5,16.6-6.7,25s-4.2,16.4-6.1,23.9c-1.9,7.5-3.5,14.3-4.9,20.4
			c-1.4,6.1-2.3,10.8-2.9,14.1l0.2-0.2c-0.2,1.1-0.4,2.1-0.4,3c-0.1,0.9-0.1,1.6-0.3,2.3c0,0-1,7.4,2.8,9.6c3.8,2.2,18,8.1,18,8.1
			h0.2c0,0.1,0.1,0.2,0.2,0.2l1.9,0.5c1.1,0.2,2.2,0.4,3,0.6c0.9,0.2,1.6,0.3,2.3,0.3c2.2,0,3.8-0.6,4.8-1.7c1-1.1,1.9-2.9,2.8-5.2
			c0.9-3.9,2-8.4,3.4-13.4c1.3-5,2.8-10.4,4.3-16s3.2-11.5,4.9-17.6s3.4-12.3,5.2-18.5c1.1,7.6,2.3,15,3.5,22.2s2.6,13.8,4.2,19.7
			c1.6,5.9,3.6,11,5.9,15.2c2.3,4.2,5.3,7.2,8.9,8.9c3.3,1.3,6.8,2.5,10.4,3.8c3.6,1.3,7.2,1.9,10.9,1.9c5.6,0,9-2.8,10.1-8.3
			l-0.2,0.2c1.5-6.1,3.2-12.6,5.1-19.7c1.9-7.1,3.8-14.4,5.8-21.9c2-7.6,4.1-15.2,6.2-22.9c2.1-7.7,4.2-15.2,6.4-22.5
			c2.1-7.3,4.2-14.3,6.1-21c1.9-6.6,3.8-12.7,5.5-18.1c0.5-1.1,0.8-2.2,0.9-3.3c0.2-1,0.3-2,0.3-2.9c0-2.6-0.9-4.9-2.8-6.9
			c-1.8-1.9-4-3.6-6.5-5.1c-2.5-1.4-5.1-2.6-7.7-3.5c-2.6-0.9-4.8-1.6-6.5-2.1c-1-0.2-2-0.4-2.8-0.6c-0.8-0.2-1.5-0.3-2.1-0.3
			c-5,0-8.5,2.8-10.3,8.4c-3,9.1-6,19-9.2,29.8s-6.2,22-9.2,33.5c-0.5-4.6-0.9-9.1-1.4-13.7c-0.5-4.5-0.9-8.8-1.2-12.8
			s-0.7-7.7-0.9-11c-0.3-3.3-0.5-6.1-0.6-8.4C857.9,64.8,857,61.3,855.5,58.8z"/>
		<path d="M942.3,37.7c5.3-1.4,11.1-2.8,17.4-4.1c6.3-1.4,12.8-2.7,19.5-3.9s13.5-2.2,20.4-3.1s13.6-1.5,20.1-1.8h1.2
			c7.8,0,13.9,1.5,18.3,4.6s7.9,7.9,10.4,14.3l0.2,0.2c1.3,3.1,2.2,5.8,2.8,8.2c0.6,2.4,1.2,4.8,1.6,7.3c0.7,3,1,5.6,1,7.9
			c0,4.5-0.4,8.2-1.2,11.3c-0.8,3-2.2,5.6-4.1,7.6c-2,2-4.5,3.6-7.7,4.7s-7.3,2-12.2,2.6c-2,0.2-4,0.5-6,0.7c-2.1,0.2-4.1,0.5-6,0.7
			c2.4,2.3,4.6,5.4,6.5,9.5l0.3,0.3c1.8,3.4,3.2,6.8,4,10.1c0.9,3.3,1.7,6.7,2.5,10v0.5c0.2,1.1,0.4,2.2,0.5,3.2
			c0.1,1,0.2,1.9,0.2,2.8c0,7-1.4,12.2-4.3,15.7s-6.7,6-11.5,7.7c0.9,1.5,1.6,3,2.1,4.5c1.8,3.7,3.4,7.7,4.7,12.1
			c1.3,4.4,2,8.7,2,13c0,4.1-0.4,7.6-1.1,10.3c-0.7,2.8-2,5.1-3.7,7s-4,3.4-7,4.6c-2.9,1.1-6.5,2.2-10.8,3.1h0.3
			c-3.4,0.8-7,1.6-10.6,2.3s-7.3,1.5-10.9,2.3c-4,0.9-8,1.8-12,2.6s-7.8,1.7-11.6,2.6c-0.6,0.1-1.1,0.2-1.6,0.3s-1.1,0.1-1.6,0.3
			c-1.6,0.2-3.1,0.4-4.5,0.6c-1.4,0.2-2.7,0.3-4,0.3c-4.2,0-7.9-0.5-11-1.4s-5.9-2.2-8.4-3.9s-4.9-3.7-7.1-6c-2.2-2.4-4.7-5-7.3-8
			l-0.5-0.5c0-0.1-0.1-0.2-0.2-0.2c-3.1-3.3-5.5-7-7.3-10.9c-1.8-4-2.7-8.7-2.7-14.2c0-1.6,0.1-3.1,0.3-4.6c0.2-1.4,0.4-2.9,0.6-4.4
			l31.1-119.2L942.3,37.7z M949.2,55.6l-29.9,114.6c-0.3,1.7-0.5,3.4-0.5,5.2c0,3,0.5,5.5,1.4,7.6s2.2,4,3.8,5.7v-0.2
			c1.9,2.3,3.8,4.3,5.4,6.1c1.7,1.8,3.3,3.3,4.9,4.6c1.6,1.3,3.4,2.3,5.2,3c1.9,0.7,4.1,1,6.6,1c2.2,0,4.9-0.4,8.1-1.2l-0.2,0.2
			c7.2-1.6,14.7-3.2,22.4-4.9s15.3-3.3,22.6-4.9c3.3-0.7,5.6-1.5,6.9-2.6c1.3-1,1.9-2.9,1.9-5.5c0-3-0.5-6.1-1.6-9.5
			c-1.1-3.3-2.3-6.4-3.7-9.1v0.2c-1-2.8-2.5-4.7-4.4-5.9s-4.4-1.8-7.5-1.8c-5.2,0-10.1,0.3-14.7,1c-4.6,0.7-9.1,1.4-13.5,2.2
			c0.2-2.1,0.8-4.4,1.7-7.1c0.9-2.7,1.8-5.2,2.8-7.5c4-0.9,8.1-1.7,12.2-2.5c4.1-0.7,8.4-1.6,12.7-2.5h-0.2c3-0.5,5.9-0.9,8.7-1.3
			c2.8-0.4,5.3-0.9,7.4-1.6c2.1-0.7,3.8-1.6,5.2-2.8c1.3-1.2,2-2.8,2-4.7c0-1-0.2-2.4-0.7-4.1l0.2,0.2c-0.6-2.4-1.1-4.8-1.7-7.1
			c-0.6-2.3-1.5-4.8-2.9-7.5v0.2c-1.3-2.9-2.9-4.8-4.8-5.8c-2-1-4.6-1.5-7.9-1.5h-1.2c-5,0.1-10,0.5-15,1c1.6-4.4,3.2-8.7,4.6-13.2
			c1.5-4.4,2.9-8.5,4.3-12.3c7.1-1,13.8-1.9,20.1-2.7c6.3-0.7,12.4-1.4,18.4-2c3.8-0.5,6.4-1.3,7.7-2.6c1.4-1.3,2.1-3.4,2.1-6.5
			c0-1.6-0.2-3.2-0.7-4.6l0.2,0.2c-0.3-1.9-0.7-3.8-1.2-5.5s-1.3-3.9-2.4-6.5V51c-1-3-2.6-5.2-4.6-6.7s-4.8-2.2-8.5-2.2h-0.9
			c-6.1,0.2-12.2,0.7-18.4,1.5s-12.2,1.7-18.1,2.8c-5.9,1-11.6,2.1-17,3.4c-5.4,1.2-10.5,2.4-15,3.5L949.2,55.6z"/>
	</g>
	<path class="st15" d="M598.2,76.5c-2.8-28-34-33.8-52.5-32.2c16.5,1.5,28.5,4.5,37.5,13.2S593.8,68,598.2,76.5z"/>
	<path class="st15" d="M554.7,121.8c0,0,10.3-4,19.7-1.7c9.3,2.3,16,19.3,16,19.3s-7.7-12.7-16.3-15.7S554.7,121.8,554.7,121.8z"/>
	<path class="st15" d="M821.5,46.2C848.8,54,854,55,856.2,73.5c0.1,3.6-1.6-5.2-8.4-12.6C841.9,54.5,831.6,49.9,821.5,46.2z"/>
	<path class="st15" d="M891.5,47c0,0,30.5,4,21.5,26.5C912,54.5,891.5,47,891.5,47z"/>
	<path class="st15" d="M970,50.8c0,0,46.3-9.3,54.7-6.7c8.3,2.7,8.3,12.3,8.3,12.3s-4.3-5-11.7-6.7S970,50.8,970,50.8z"/>
	<path class="st15" d="M1002.3,109.2c-6.7-2.7-26.3,2.3-26.3,2.3s16.8-1,23,0.8c6.3,1.8,11,8.2,11,8.2S1009,111.8,1002.3,109.2z"/>
	<path class="st15" d="M994,161.5c-6.7-2.7-26.3,2.3-26.3,2.3s16.8-1,23,0.8c6.3,1.8,11,8.2,11,8.2S1000.7,164.2,994,161.5z"/>
</g>
<g id="Layer_7">
	<path class="st16" d="M889.5,30.6c0,0,16.6,0.6,34.4,1c17.8,0.4,62.4-1.3,89.9-1.7c27.5-0.3,75.7-0.2,100-0.2s68.9-1.8,95-1.7
		c26,0.1,59.2,0.9,61.8,1s3.4-0.4,6.7-0.3s4.5,0.2,9.6,0s32.2-1.1,40.5-0.8s55.5,0.5,65.8,0.1c-29.6-0.9-90.9-2-107.9-1.9
		s-51.7-0.2-78.7-0.3s-60.1,1.5-96.1,1.5s-67.3-1-97.8-1s-74.8-0.7-77.4-0.7c-13.1,0.3-6.2,1.6-21,1.3c-5.4-0.1-26.4,0-26.4,0
		L889.5,30.6z"/>
	<path class="st16" d="M1254.5,124.9c-14.9-3.9-38.5,3.9-47.4,2c-8.6-1.8-38.5,2.6-49.6,4c-11,1.4-34.5,0.9-55-1.2
		c-20.5-2.2-24.7,5.2-34.6,6.9s-16.1-5.4-34.3-2.9c-18.2,2.5-9.9-1-25.7-1.6s-14.3-2-38.9-3.9c-24.6-1.8-40.1-0.8-40.1-0.8l-0.3,5.1
		c0,0,19.7-1.9,37.7-0.1c18,1.8,33.9,4.8,47,6.3c13.1,1.5,11.4,8.8,39.3,4.2s33.3-7.2,48.1-6.6c14.9,0.6,14-1.8,29.3-1.8
		s16.9,3.8,27.5,2.1s22.6-5.9,34.3-5.6C1203.5,131.5,1242.8,124.3,1254.5,124.9z"/>
	<path class="st13" d="M874.5,117.3c-5.5-3-10.5-14-3.5-13.2c27.3,2.9,132.5,1.9,146.7,0.8s32.7-1.5,62.2-1.6s61.3-1.3,73,1.5
		s118.5,1.3,142.1,2.6c-17.5,3.1-151.3,1.6-165.7,1.2c-14.5-0.4-51.1,10.5-88.4,8.4c-37.3-2.1-52.8,6.4-75.6,5.7
		c-22.8-0.7-25.8,4-43.2,6.2c-17.4,2.3-30.5,6.7-44.3,3.9C863.9,130.1,874.5,117.3,874.5,117.3z"/>
	<path class="st16" d="M924,149.7c0,0,16.6,0.6,34.4,1c17.8,0.4,62.4-1.3,89.9-1.7c27.5-0.3,75.7-0.2,100-0.2s68.9-1.8,95-1.7
		c26,0.1,59.2,0.9,61.8,1s3.4-0.4,6.7-0.3c3.4,0.1,4.5,0.2,9.6,0s32.2-1.1,40.5-0.8s55.5,0.5,65.8,0.1c-29.6-0.9-90.9-2-107.9-1.9
		s-51.7-0.2-78.7-0.3s-60.1,1.5-96.1,1.5s-67.3-1-97.8-1s-74.8-0.7-77.4-0.7c-13.1,0.3-6.2,1.6-21,1.3c-5.4-0.1-26.4,0-26.4,0
		L924,149.7z"/>
	<path class="st13" d="M848.2,163.8c7.2,0.5-13.7,0.2,9.3-1.1c23-1.2,54,2.5,67.3,5c13.2,2.5,0.5-4.5,8.6-3.9s20.3,3.8,23.1,2.6
		s11-4.2,34.6-3.3c23.7,0.8,41.6-2.1,53.6-0.9c12,1.2,5.1,3,8.7,4.6c-9-3.9,51-3.8,57.3-4.7c18.8-2.5,29.4-1.1,32.4,0.4
		c3,1.6-8.3,2.6,15.3,3.1c23.5,0.5,26.5-3.2,43-3.1c49,0.7,27.2,3.4,42,4.2s16.4-2.3,40.7-2.3s40-2.4,57.2-2.9
		c17.1-0.4-1.8-1.7,40.4-1.7c16.5,0.1,54.9,0.6,92.2-0.2c26.4-0.6,52.2,3,69.2,0.4c0,0-32-3.4-63.7-2.8c-24.2,0.4-48.2,0.4-57.7-1.2
		c-41-6.8-70.2,0.5-88.3,0.5c-27.7,0.1-28.2,2.5-70.9,1.5c-42.7-1-10.9-1-27.9-1.2c-17-0.3-52.2,0.5-57.9,0.5s-2.8-0.7-11.2-0.7
		s-43,1-74.4,1c-31.5,0.1-28.8-0.4-46.7-0.2c-17.9,0.2-24.3-1.6-39.2-1.2c-14.9,0.4-10.3,0.9-26.2,0.8s-26.5-1.2-36.4-1.3
		c-10-0.2-0.9,1.9-10.9,0.8c-6.2-0.7-8.9,3.1-14,2.7c-5.1-0.3-31.6-1.6-64.5-1.9L848.2,163.8z"/>
	<path class="st16" d="M1335.1,180.6c0,0-15.3,5-20.5,5.1s-1.4-6.3-6.3-6.3c-4.9,0.1-6.7,4.6-12,4.6s-7,2-13.1,2s1.6-6.8-4.9-7
		c-6.6-0.1-14.8,7.7-20.4,7.8s-3.8-7-10.7-6.7c-7,0.3-11.8,3-16.1,3c-4.3,0.1-3-8.4-6.6-8s-14,12.5-20.9,13s-25.3-9.2-31.1-9
		c-5.8,0.1-16.9-1.5-30.8-1.3c-13.8,0.2-16.9,7.6-29.2,9s-8.7-0.4-18.5-0.6c-9.8-0.1-24.6-0.9-41.3,0c-16.7,0.9-43.5,1.1-47.3,1.1
		s-17-2.3-24.8-2c-7.8,0.4-5.8-0.8-14.8-0.3s-7.8-0.5-15.9,0c-8.2,0.5-9.3,0.5-19.9,1.4c-10.7,0.9-22.1-1.1-27.1-0.6
		s-4.3,0.1-11.1,0.3s-15.7-1.5-27.6-0.9s-5.8-0.5-14.5,0.6s-5.6-0.4-15.1,0s-6.1-0.1-15.4,0.3c-9.3,0.4-36.7-1.3-46.7-0.6
		s-23.2-0.4-36.7,0s-8,0.4-19.7,0s-14.8,1.1-21.4,0.9s-0.9-1.1-16.5-0.9c-15.7,0.3-21.8-0.4-30.2,0.3s-8.3-0.9-14-0.9
		c-5.6,0.1-6.3,0.6-12,0c-5.6-0.6-12.8-0.4-23.4,0c-10.5,0.4-21.9-0.7-34.2,0s-15-0.5-17.4-0.6s1.4,1.6-3.7,2
		c-5.1,0.4-3.3-0.3-9.7-1.4s-15.2,0.1-25.6-0.3c-10.4-0.4-10.1,0.6-15.1,0.3s-4.7,0.2-10-0.3s-9.5,0.6-9.5,0.6l-0.2-4.4
		c0,0-4.1-0.8,7.1,0.3s10.1-1.2,16.2-0.6c6.1,0.6,4.5-0.4,12.5-0.6c8-0.2,19,0.6,23.9,1.1c4.9,0.5,4.9-1,8.8-0.6
		c3.9,0.4,2.6-1.1,10.5,0s5.7-1,19.9,0.3s15.4-1.1,25.6-0.6s16.3-1.4,24.8-0.3s3.8-1,10.8-0.3s8.6-1,16.2-0.3c7.6,0.7,24.5-1,33,0.3
		s8.6-0.2,17.1-0.3s9.3,0.4,17.4,0c8.1-0.4,7.9,0.1,19.4,0.6c11.5,0.4,25.9-1.3,36.2-1.1c10.3,0.1,40.2,0.9,55.5,1.4
		s15-0.9,22.2-0.3c7.2,0.6,5.6-1.1,14-0.3s22.1,0.7,27.3,0.3c5.3-0.4,2.8,0.5,10.3,0s20.9,0.7,32.8,0.3c11.9-0.4,14-1,20.8-0.3
		s13.6-1.6,28.2-0.3c14.6,1.4,10.5-0.4,24.5-0.3c14,0.1,24.6,1.1,50.4,1.1s20.7-1.6,37.6-0.9c35.9,1.7,10.4-6.2,49.7-7.1
		c39.3-0.9,31.2,4.5,37.2,4.4s13.1,7,18.6,6.3c5.6-0.7,13.9-13.3,24.1-13.9c6-0.3,2.3,9.1,8.4,8.7s6.6-4.1,14.6-3.4
		c8,0.6,1.4,6.9,11.4,5.9s10.3-9.1,24.3-8.9c5.9,0.1-3.6,9.9,3.8,9.9s12.9-7.9,22-6.6c9.1,1.3,1.7,6.6,8.8,5.6
		c7.1-1,15.9-4.9,15.9-4.9L1335.1,180.6z"/>
</g>
<g id="Layer_2_1_">
	<path class="st16" d="M336,93c0,0,2.7-1.2,3.8-1.8c1.1-0.6,0.7-1.7,2.3-2.2c1.7-0.6,4.4-2.2,11.4-1.8s5.9-1.8,13.2-1.2
		c7.3,0.5,10.9,4.7,11.7,6.2c0.9,1.6,3.2,0.9,4.7,0.5s2.6-2.8,4.7-3.5s3-0.2,4.1,0.2c1.1,0.4,6.4,1.9,8.8,3.5s4.7,0.1,4.7-2
		s-1.7-6.5,0.9-10c2.5-3.5,7.7-1.2,7.6-2.2s0.5-4.8,7.3-6.8c6.8-1.9,10.8,0.5,12,0c1.3-0.5,10-2.5,15,0s5.7,6,5.9,6.8
		c0.2,0.8,3.6,1,5.6,0.8s1.6-5.8,5.3-7.2s15.9-5.3,25.8-5s10.1,11.9,10,13.2c-0.1,1.3,4.3,2.4,6.5,1.2c2.2-1.2,4-3.9,2.1-7.8
		c0,0,0.8-5.9,7.9-5.8c7.1,0.2,15.7,4.1,20,3.8c4.3-0.3,9.5-7,9.1-9.5s-2-2.5-1.2-5s35.6-9.2,49.9-9c14.3,0.2,28.2,4.7,32.9,7.2
		c4.7,2.6,4.9,5.4,8.2,7.5c3.3,2.1,2.1,8.5,2.1,8.5l2.3-2.8c0,0,2.9-2.8,0.3-5.5c-2.6-2.7-2.2-7.1-10.3-10.2
		c-8-3.2-13.6-10.8-35.8-9.5c-22.2,1.2-49.7,5.9-54,10.2s0.3,7.2,0.3,7.2c2,2.7-1.5,7.6-4.7,8c-3.1,0.4-15.1-7.1-21.1-6.2
		c-6.1,0.8-8.1,4.3-10,8c-1.9,3.7-2.8-6.2-10.9-7.2c-8-1.1-26.4,3.9-30.8,5.8c-4.4,1.8-4.1,3.8-5,5.8c-0.9,1.9-1-1.6-7.6-5.2
		c-6.7-3.7-15.1-1-16.7-0.8s-8.7-2.7-14.4-0.8c-5.7,1.9-6.1,5.9-7,6.8c-1,0.8-5.1-1.5-9.1,1.5s-2.3,9.2-2.1,11.2
		c0.3,2.1-1.3,1.8-3.5,0.5s-3.1-2.1-8.5-3s-5.2,5.2-8.5,3.5s-7.3-6-13.2-6.5c-5.9-0.5-10.5,1.5-14.1,2.2S343.3,85,340.4,86
		s-4.4,2.2-4.4,2.2V93z"/>
	<path class="st16" d="M342.2,161.7c9-5.3,20.6-1.7,20.6-1.7s2.1-13.9,28.7-9.7v-3.6c-24.4-4.8-30.4,8.9-30.4,8.9
		S345.7,154.8,342.2,161.7z"/>
	<path class="st16" d="M394.9,154.4c-12-14.7,20.6-14.3,27.8-9.7c7.3,4.6,10.7,0.8,16.7,1.1s12.4,1.9,12,4.4s6,3.3,6,3.3
		s-3.6-4.4-3.4-6.4s-6.4-4.4-13.3-4.7s-7.1,2.6-16.3-1.9c-7.9-3.9-40-1.6-36.2,9C389,151.3,391.5,153.3,394.9,154.4z"/>
	<path class="st16" d="M380.4,114.8c10.3-0.6,46.7-0.9,63.8-0.7c17.1,0.1,59.6-0.5,85.3-0.2c25.7,0.2,33.1-1,52.5-1
		s93-0.1,123.5,0.2s77.1,0.1,109.2,0.2c29.8,0.2,25-0.5,48.7-0.5s58.8,0.1,90.3,0.2c31.5,0.2,56.5-0.6,74.3-0.5
		c17.8,0.1,10.3-0.2,37-0.2s49.4-0.2,78.5-0.2s45.4,0.5,45.4,0.5l0.4,3.7c0,0-19.5-0.2-45.3-0.2s-63,0.4-80.7,0.2
		c-17.7-0.2-30.9,0.2-37.4,0c-29.7-1.1-50.2-0.2-73.5-0.2s-75.7-0.7-90.7-0.2s-24.8,0.6-48.7,0.5s-84.8,0.1-109.2-0.1
		s-98.7-0.3-123.9-0.3s-35.6,0.7-50.4,0.2c-14.8-0.5-74.2,0.3-87.4,0S421.2,115.2,380.4,114.8z"/>
	<path class="st16" d="M456.7,82.4c-3.5,0.1-0.8-1,1.7-1.2s2.8,0.5,5.8,0.3s3.9-0.9,6-0.9s5.7,0.8,7.9,0.9c2.2,0,3.4,0.5,8.2,0.6
		c-3,0.7-6.5,0.5-8.5,0.3s-2.8,0-7.3,0s-3.5,0.4-6.2,0.3S460.2,82.3,456.7,82.4z"/>
	<path class="st16" d="M465.3,96.9c9.2-0.6,41.6-0.8,56.9-0.7c15.3,0.1,53.1-0.4,76-0.2c22.9,0.2,29.5-1,46.8-1s82.8-0.1,110,0.2
		c27.2,0.4,68.7,0.1,97.3,0.2c26.6,0.2,22.3-0.5,43.4-0.5c21.1,0,52.4,0.1,80.5,0.2s50.4-0.5,66.2-0.5c15.9,0.1,9.2-0.2,32.9-0.2
		c23.8,0,44-0.2,70-0.2s40.4,0.5,40.4,0.5l0.4,3.6c0,0-17.4-0.2-40.3-0.2c-23,0-56.1,0.4-71.9,0.2s-27.5,0.2-33.3,0
		c-26.5-1.1-44.7-0.2-65.5-0.2s-67.4-0.7-80.8-0.2s-22.1,0.6-43.4,0.5s-75.6,0.1-97.3-0.1s-88-0.3-110.4-0.3s-31.7,0.6-44.9,0.2
		c-13.2-0.5-66.1,0.3-77.8,0C508.6,97.8,501.7,97.2,465.3,96.9z"/>
	<path class="st16" d="M379.3,89.9c10.3-0.6,46.5-0.8,63.5-0.7c17.1,0.1,59.3-0.4,84.8-0.2c25.6,0.2,33-1,52.2-1
		c19.3,0,92.5-0.1,122.9,0.2c30.3,0.4,76.7,0.1,108.7,0.2c29.7,0.2,24.9-0.5,48.5-0.5s58.5,0.1,89.9,0.2c31.3,0.2,56.2-0.5,74-0.5
		c17.7,0.1,10.2-0.2,36.8-0.2c26.6,0,49.1-0.2,78.2-0.2s45.1,0.5,45.1,0.5l0.4,3.6c0,0-19.4-0.2-45-0.2s-62.7,0.4-80.3,0.2
		c-17.7-0.2-30.7,0.2-37.2,0c-29.6-1.1-49.9-0.2-73.1-0.2c-23.2,0-75.3-0.7-90.3-0.2s-24.7,0.6-48.5,0.5s-84.4,0.1-108.7-0.1
		S603,91,577.9,91s-35.4,0.6-50.2,0.2s-73.8,0.3-86.9,0C427.6,90.8,419.9,90.2,379.3,89.9z"/>
	<path class="st16" d="M656.7,88.3c11.7-0.2-25.7-1.2-38.1-0.8c-12.3,0.5-23.2-0.4-31.5,0s-20.9,0.3-36.2,0.8
		c-15.4,0.4-18.4-1.3-27.6-0.8c-9.2,0.5-27.7,0.2-33.4,0.2c-5.6,0.1-26.8,1.2-31.5,0.4c-1-0.2-1.7-1.7-3.7-1.7s-6.9,2.3-8.8,2.2
		c-2-0.2-10.9,0.5-13.5,0.6c11.6,0.4,12.7,0.8,14.8,0.6c1.2-0.1,6.6-1,8.3-1c1.4,0,2.4,1.3,5.5,1s22.7-0.8,29.4-0.4
		c6.7,0.5,24.4-0.2,35.2,0s26.3-0.1,42.5,0.2c16.2,0.3,21.9-0.9,31.8-1c8.9-0.1,7.7,0.7,20.6,0.8C633.4,89.6,645,88.5,656.7,88.3z"
		/>
	<path class="st16" d="M767,77.4c-0.2,2.5,2.4,3.4,3.8,3.3c1.4,0,8.5-0.8,10.3-3s3.8-7.2,7.4-7.3c3.6-0.2,8.5-0.2,11.6,2.2
		s4.5-2.9,14.9-3.2s24.8,5,25,7s3,3.8,5.6,4.5s8.4,0.9,8.7-1.7s3.2-5.7,6.7-6s4.9-4.1,17-7.2c5.4-1.4,20.6-5.4,29.7-1.7
		c13.2,5.4,30.2,1,33.7,2.1c6.3,1.9,1.3,4.4,7.6,5.3c6.2,0.9,6.9,11,10.5,10.8s6.1,1.9,10.7,0.5c12.5-3.8,18.2,2.5,18.2,2.5
		s6.2-1,15.6-0.8c9.3,0.3-16.2-9-26.2-9.5c-10-0.6-11.3,1.9-15.2,2.7c-3.8,0.8-1.8-8.7-8.3-8.7s-3-4.3-11-7.2
		c-4.5-1.6-19.4,6.3-36-2.2c-10-5.1-24.3,1.4-30.5,2.8c-13.9,3.1-13.3,7.7-18.3,8s-6.5,1.7-7.6,4.7c-1.2,3-6.1,4.3-7.5-2.1
		c-0.6-2.8-18.4-8.8-27.4-8.5c-9,0.2-13.2,4.8-16.2,2.5c-3-2.2-9.6-2.8-13.9-2.4c-4.3,0.4-7,9.2-8.5,10.1s-7.3,0.6-6.2-2.3
		C772.2,69.8,767.2,74.9,767,77.4z"/>
	<path class="st16" d="M457.6,153.6c1,0.3-4.4-4.5-1.4-4c0.5-1.1,4.2-4.2,8.9,0.8c11.7-1,7.2,8.8,7.2,8.8s4.6,2.6,6,7.6
		c7.8,0.7,7.4,5.4,9.6,5.6s-0.7-10,8.2-4.9c-7-8.5-8.5,0.4-10.3-1.2c-1.8-1.7-4.8-0.8-6.3-3.6s-3.8-3.9-3.8-3.9s5-13-9-11.1
		c-5.7-6.1-14.9-1.6-13.3,0.6c1.6,2.2-1.5,1.4-1.5,1.4S456.7,153.3,457.6,153.6z"/>
	<path class="st16" d="M493.5,165.3c0,0,2.1-4.3,6.6-1.8s12-4,20.7,7.8c7.8-5.2,15.1-3.5,15.1-3.5s5-2.7,8.2,4.5
		c2.4-3.3,6.6-1.8,6.6-1.8s-4.5-5.5-6.1-4.3s-1-1.8-9.9-1.8s-12.9,2.8-12.9,2.8s-10.1-9.1-22.4-8c-7.5,0.7-8.2,5.5-8.2,5.5
		L493.5,165.3z"/>
	<path class="st16" d="M549.2,169.6c0,0-1.4-16.2,14.8-10.8c5-2.5,12.2-1.5,12.2-1.5s8.2-6.3,16.7,6.7c9.6-5.3,12-0.5,12-0.5
		c2-1.3,1.1-3.2,7.5-3.5c0,0,15.2-2.2,28.6,9.8l-1.7-5.6c1-1.2-19.6-11.2-27.3-7.3c-3.3,1.7-7.5,3.2-7.5,3.2s-3.1-4.5-11.6-1.7
		c-5.2-9.2-16.3-5.8-16.3-5.8s-6.6-0.7-11.3,2.2c-24-6.7-18.9,12.7-18.9,12.7L549.2,169.6z"/>
	<path class="st16" d="M770.5,187.3c1.8,3.2,7.3,5.8,4.4-0.2c-12.3-21,11.5-20,11.5-20s2.1-5.8,9.1-2c4.7-4,8.6-3,8.6-3
		s7.6-2.2,11.2,4.2c38.6-3.5,31.5,17,31.5,17l4.6-4l0.1-5.2c0,0,2.9-15.8-34.9-11.8c-3.6-5.2-13-5-13-5s-3.4-2.5-10.2,1.5
		c-7-4.2-13,3.8-13,3.8S759.8,167.5,770.5,187.3z"/>
	<path class="st16" d="M959.5,120c-10.3-0.4-45.5-0.5-62.6-0.5c-17.1,0.1-59.6-0.3-85.3-0.2s-33.1-0.7-52.5-0.7s-93-0.1-123.5,0.2
		s-77.1,0-109.2,0.2c-29.8,0.1-25-0.1-48.7-0.3c-55.2-0.6-104.8,0.5-89,0.9s75.7,0.9,90.7,1.2c15,0.3,24.8,0.4,48.7,0.3
		s84.8,0.1,109.2-0.1c24.4-0.1,98.7-0.2,123.9-0.2s35.6,0.5,50.4,0.1c14.8-0.3,74.2-0.2,87.4,0C938.4,121.5,918.6,120.3,959.5,120z"
		/>
	<path class="st16" d="M873.5,124c-10.3,0.4-45.5,1.5-62.6,1.5c-17.1-0.1-59.6,0.3-85.3,0.2s-30-0.3-49.4-0.3s-23.1,1.1-53.6,0.8
		s-40.6,0-72.7-0.2c-29.8-0.1-25,0.1-48.7,0.3c-55.2,0.6-104.8-1.5-89-1.9s75.7-0.9,90.7-1.2s24.8-0.4,48.7-0.3s48.3,0.9,72.7,1.1
		c24.4,0.1,28.9-0.8,54-0.8c25.2,0,32.4-0.5,47.3-0.1c14.8,0.3,74.2,0.2,87.4,0C852.4,122.5,853.9,122.4,873.5,124z"/>
	<path class="st16" d="M473.2,140.5c7,0.3-3.3-1-8.3-1.3s-5.5,0.7-11.6,0.4c-6.1-0.4-7.8-0.7-11.9-0.8c-4.2-0.1-11.5,0.3-16,0.3
		s-6.8,0.7-16.4,0.6c6,1.2,13.1,1,17.1,0.8c4.1-0.2,5.6,0,14.7,0.2s7.2-0.1,12.5,0C458.6,140.7,466.2,140.3,473.2,140.5z"/>
	<path class="st16" d="M435.3,129c0,0,9.3,1.3,49.5,1.8c12.7,0.2,51.5,0.5,66,0.4c14.6-0.1,25.9,0,59-0.4s79,0.4,88.9,0.5
		s104.7-1.6,106.9-1.5s-16.9-1.8-49.8-1.4c-1.7,0-75-0.2-113.4-0.4c0,0-43.7,0.1-59.5,0.4c-15.8,0.3-87,0.8-98.4,0.4
		C452.6,127.8,435.3,129,435.3,129z"/>
	<path class="st16" d="M791.5,135c0,0-6.4,2-77.5,0.7c-12.7-0.2-51.5,0.5-66,0.4c-14.6-0.1-25.9,0-59-0.4s-71.5,0.2-88.7,0.2
		c-12,0-56.1-1.9-83.7-2.3c-11.8-0.2-23.5-0.7-24.2-0.7c-2.2,0.1,24.6-1.8,50.6-0.7s75,0.8,113.4,0.6c0,0,43.7,0.1,59.5,0.4
		c15.8,0.3,115.5,0,126.9,0.4S791.5,135,791.5,135z"/>
	<path class="st16" d="M755.9,141.2c-14.2-0.6-22-1-32.1-1.2c-41.1-0.7-77,0.1-94.5,0.2c-21.7,0.1-37.2-1-37.2-1
		c-33.7-0.4-36.3,2-67.2,0.6c-33.9-1.5-40.6,0.5-40.6,0.5c25.9,0.8,72.9,2.1,105.9,2c33-0.2,13.2,0.7,38.6,0.9
		c17.4,0.1,47.6-1,79.9-1.6C723.6,141.3,736.4,143.2,755.9,141.2z"/>
	<path class="st16" d="M801.4,149.6c-26.8-1.2-37.2-3.2-50.3-2.8c-13.2,0.4-24.1,1.9-28.2,1.3c-4-0.6-9.1-1.5-23.5-1.6
		c5.7,0.2,17.1,2.7,23.8,3.2s17.4-0.6,28.1-0.7C762.2,149,773.4,150.2,801.4,149.6z"/>
	<path class="st16" d="M461.3,146c13.4-0.1,13-1.2,33.3-0.6c20.2,0.6,46.1,2,57.7,1.1c11.6-0.9,23.1,1.3,32,0.4c9-0.9,18.3,0.8,36,1
		c-18.5,2.2-29.5-0.1-37.6,0.9s-22.5-0.7-32.2-0.2s-47.2-1.3-57.8-0.6c-10.6,0.7-22,0.3-30.1-0.4C454.6,146.8,454,145.8,461.3,146z"
		/>
	<path class="st16" d="M603.7,153.2c-3.3-0.1-4.7,0.6-7.4,0.5s-3.6-0.2-7.4-0.6c-3.9-0.4-3.8,0.1-10.8-0.1c-7-0.2-9.7,1.8-3.4,1.7
		s8.4-0.4,12.4,0.1c4.1,0.5,6.7-0.2,8.7,0c1.9,0.1,2.3-0.4,4.6-0.6c2.4-0.2,8.6,0.1,8.6,0.1S606.9,153.3,603.7,153.2z"/>
	<path class="st16" d="M550.5,153.7c-2.9-0.6-9.3-0.7-12.7-0.9c-8.5-0.6-16.1,0-23.1-0.1c-6.1-0.1-11.6-1.1-16.7-0.9
		c-13.2,0.4-19.5,1.1-23.5,0.6c-1.2-0.2-3.1,1.5,0.3,2.2c6.6,1.3,12.7-0.5,23.5-0.5C509.2,153.9,528.3,154.9,550.5,153.7z"/>
	<path class="st16" d="M761.4,141.1c-7.2,0.2,7.8-1.2,11.3-1.3s7.2,0.5,11.1,0s6,0.7,8.4,0.2s3.6-1.1,6.1-1.2c2.4,0,6.5,1.6,9.9,1.5
		s2.9-0.6,7.1-0.8c4.2-0.2,16.6,1.6,20.6,1.6c-4.1,0.3-16.9-0.6-20-0.5c-3,0.2-5,1.1-8.2,1c-3.2,0-6.6-1.1-9-1.1s-4.3,1.3-6.5,1.2
		s-6.3-0.3-8.2-0.1c-1.9,0.3-9.2,0.6-11.7,0.4C769.8,141.7,764.9,141,761.4,141.1z"/>
	<path class="st16" d="M474.1,158.3c-2.4,0.1-0.2,0.7,3.3,0.9s11.3-0.3,15.3,0.3c3.9,0.6,6-0.6,8.4-0.1s3.6,1.2,6,1.3
		s6.5-1.4,9.9-1.3c3.4,0.1,2.9,0.7,7.1,1c4.2,0.3,16.7-1.3,20.6-1.2c-4.1-0.4-16.9,0.3-20,0.1c-2.9-0.2-5-1.2-8.1-1.2
		c-3.2,0-6.6,1-9,1c-2.5,0-4.3-1.4-6.5-1.3c-2.2,0.1-6.3,0.2-8.2-0.1c-1.9-0.3-10,0.1-12.5,0.3C477.8,158.1,477.6,158.2,474.1,158.3
		z"/>
	<path class="st16" d="M1098.3,172.8c2.3-6.3,5.2-9.7,16.3-6c8,2.7,13,7.1,16.7,11.8c1.4,1.9,4.4,3.8,3.7,5.6
		c-1.3,3.7-2.7,5-8.6,4.9c-4,0-9.7,0.6-14.3-0.9c-5.4-1.8-8.8-3.6-11.8-6.8C1097.4,178,1097.2,176,1098.3,172.8z"/>
	<path class="st13" d="M1101.6,173.9c1.7-4.7,3.9-7.2,12.8-4.3c6.3,2.1,10.4,5.5,13.3,9.1c1.2,1.4,3.5,3,3,4.3
		c-1,2.8-2.1,3.7-6.7,3.5c-3.2-0.1-7.7,0.3-11.3-0.9c-4.3-1.4-7-2.9-9.4-5.3C1101,177.8,1100.8,176.3,1101.6,173.9z"/>
	<path class="st16" d="M448.3,166.3c1.3,5.2-2.2,8-11.1,10s-19.8,2.5-21.1-2.7c-1.3-5.2,4.8-12.1,13.7-14.1
		c3.7-0.8,7.2,1.7,10.2,2.3C444.3,162.6,447.5,163.2,448.3,166.3z"/>
	<path class="st13" d="M443.7,166.6c1,4.1-1.7,6.3-8.5,7.8c-6.8,1.6-15.1,1.9-16.1-2.1c-1-4.1,3.6-8.7,10.4-10.2
		c2.8-0.6,5.5,0.5,7.8,1C440.6,163.7,443.1,164.2,443.7,166.6z"/>
	<path class="st16" d="M1185,58.5c0,0-48.6,1.8-74.8,1.3c-26.2-0.5-59-1-83.1,0c-24,1-19.5-0.3-44.6-0.8s-74.3-0.5-95.7-1.8
		s-36,0.3-44.4,0.3c-8.4-0.1-16.9-1.2-22.7-1S787,57.6,767,56.4c15.7-0.4,46-2.6,53.5-2.5s14.4,0.9,21.9,0.5c7.5-0.3,5.3-2.6,44.9-1
		c39.5,1.5,73.5-1,96.5,0s27.5,0.3,44.6,0.3s55.3-2.1,82-0.5c26.7,1.5,75.6-0.3,75.6-0.3L1185,58.5z"/>
	<path class="st16" d="M644.9,56.7c6.7-0.1,5.4-0.8,10.6-0.8s7.9,1.2,12.9,1.2s5.3,0.3,9.4-0.3c4.1-0.6,6-0.3,12.6-0.1
		c6.6,0.1-8.4,1-12.8,1.2s-4.8,1.6-6.1,1.4c-1.4-0.2-1.2-0.8-3.8-0.8s-6.1-0.7-12.6-0.9C648.5,57.4,638.2,56.7,644.9,56.7z"/>
	<path class="st14" d="M1101.6,173.9c1.7-4.7-1.1,3.9,7.7,6.9c6.3,2.1,9.2-0.2,12.2,3.3c1.2,1.4,9.8-2.5,9.3-1.1
		c-1,2.8-2.1,3.7-6.7,3.5c-3.2-0.1-7.7,0.3-11.3-0.9c-4.3-1.4-7-2.9-9.4-5.3C1101,177.8,1100.8,176.3,1101.6,173.9z"/>
	<path class="st15" d="M1105.7,170.2c-4,1,5.3,0.7,12.3,3.7C1123.4,176.2,1115.2,168.7,1105.7,170.2z"/>
	<path class="st14" d="M435.2,174.4c-6.8,1.6-15.1,1.9-16.1-2.1c-1-4.1,0.6,2.3,7.4,0.7c2.8-0.6,8.4-2,10.8-1.5
		C440.5,172.2,441.9,172.9,435.2,174.4z"/>
	<path class="st15" d="M424,165.2c2.2-1.5,5-2.4,8.2-2.2s8.5,1.8,5.5,2.8c-1.2,0.4-3.9-1.4-6.6-1.3
		C426.9,164.5,422.6,166.2,424,165.2z"/>
</g>
<g id="Layer_4">
	<polygon class="st17" points="730.5,112 680,98.5 618,98 629.5,81 668.5,74 705.5,75.5 728.5,84.5 	"/>
	<polygon class="st18" points="644,78 633,94.5 616,96 625.5,81 	"/>
	<polygon class="st13" points="614.5,98 645.5,95.5 700,100.5 750,120.5 772,136.5 761,145.5 748.5,176 724.5,195 696.5,202.5 
		662.5,199 638,184 604,155.5 606,120 	"/>
	<path class="st14" d="M738.5,139c-29.5-14.5-37-17.5-37-17.5L662,119l-24.8,1.1c0,0-18.7-2.6,0.3,35.4c20.5,42,101,24,101,24
		L719,196l-26,9l-41.5-8L621,177l-14.5-25.5l4-33.5l5.8-15.5c0,0,4.8-4,12.6-3.5C654.3,100.5,711.4,111.1,738.5,139z"/>
	<polygon class="st13" points="766,108.5 733.5,87 705.5,75.5 663.5,73 625.7,79.7 676,34.5 731.5,41.5 753.5,59 769,84.5 	"/>
	<path class="st14" d="M676,34.5L647.5,55l-18,26l49-7l41,6l40,21.5l6.5,7c0,0-14.5-21.5-23-27S719.5,67,719.5,67s-20.5-3-32-3
		s-26.2,3.8-33,5.5S665,47.5,682,39L676,34.5z"/>
	<g>
		<path class="st16" d="M730.8,135.1c0,0-39.9-20.5-93.6-15c19.2-4.5,37.9-4.9,51.7-2.6C715.3,122,730.8,135.1,730.8,135.1z"/>
		<g>
			<path class="st16" d="M772,142.5c0,0-23.2,85.2-101.4,68.3c-25.6-5.5-49.3-17.9-61.6-35.9c-20-29.4-14.8-76,24.1-115.9
				c10-10.2,15.4-14.4,30.4-24.4l18.2,2.4c-15.4,7.5-41.3,28.2-55.9,52.6c-23,38.7-26.9,86.6,47.4,107.2c60.6,16.5,83.7-54,83.7-54
				L772,142.5z"/>
			<path class="st16" d="M624.6,47.3c15-14.8,69.8-0.8,100.8,1.1c17.3,1,45.9-3.1,50.5-14.9c-15.8,11-53.1,1.4-76-2.2
				C673.8,27.2,634.5,29.2,624.6,47.3z"/>
			<path class="st16" d="M723.7,41.9c0,0,51.7,24.5,37.7,76.8l13.7,4.4c17.1-56.1-28.6-80.9-28.6-80.9L723.7,41.9z"/>
			<path class="st16" d="M769.6,109.1c0,0-28.8-33.5-69.1-38s-74.9,8.5-74.9,8.5l-5.3,7.8c0,0,41.5-14.3,77-9.4s68.5,37.3,68.5,37.3
				L769.6,109.1z"/>
			<path class="st16" d="M745.8,84.3c-24.5-35.5-75.5-17.4-75.5-17.4S716.1,57.8,745.8,84.3z"/>
			<path class="st16" d="M720.2,106.6c0,0-9.7-22.8,1.8-26.1c11.6-3.3,51.6,34,51.6,34l-3.6,15.7L720.2,106.6z"/>
			<path class="st16" d="M611,190.4c72,65.7,121.3-3.9,121.3-3.9l31.1-22.2c0,0-15,35.6-45.9,52.1C687.9,232.2,643.6,231,611,190.4z
				"/>
			<path class="st16" d="M617.3,95.1c0,0,36.7-6,75.5,1.1s79.4,34.1,81.5,35.8c4.2,3.6,3.6,10.8-4.5,12.8c-8.2,2-23.6-3.3-23.6-3.3
				s20.6-0.1,21.3-4c0.9-4.8-44.1-27.4-76.8-34.2c-41.2-8.6-76.1-2.2-76.1-2.2L617.3,95.1z"/>
		</g>
	</g>
	<path class="st15" d="M720.1,115.5c4.3,3.2-7.7-2.1-22.2-5.7c-16.8-4.1-31.9-8-44.2-9c8.6-0.5,22.7,1.9,41.7,5.9
		C706.7,109.1,716.3,112.8,720.1,115.5z"/>
	<path class="st15" d="M729.3,48.2c27.3,17.3,30.7,39.3,32.3,46.3c1.7,7-5.3-0.7-6.7-5S747.7,64.5,729.3,48.2z"/>
	
		<ellipse transform="matrix(0.3877 -0.9218 0.9218 0.3877 339.8362 781.4913)" class="st15" cx="758.2" cy="134.9" rx="1.5" ry="3.5"/>
	<path class="st15" d="M748,149.2c-10.3,11.7-55.3,34-31.3,29.3S758.3,137.5,748,149.2z"/>
	<path class="st15" d="M757.6,105c1.1,1.5,0.1,3.2-1.3,3.7c-1.4,0.5-3.2-0.8-3.9-2.9s-1.1-4.2,0.3-4.7
		C752.7,101.1,756.5,103.5,757.6,105z"/>
	<path class="st19" d="M550.9,96.8c4.7,0.8,21-3.7,23.9-3.8s7,0,9.8-0.4c2.8-0.5,10.7,0.6,13.2,1.3c2.5,0.7,2.7,2.3,5.6,3
		c2.8,0.7,23.7-0.4,32.5-1s12.8,1,16.7-0.3c3.8-1.3-0.8-3.4-6-4.7c-5.2-1.3-6.8-3.8-15-4.7c-8.1-0.9-22.2,1.3-22.2,1.3
		s-13.5,2.6-23.5,2.1s-14.1-4.1-28.6-1.7S546.2,96,550.9,96.8z"/>
	<path class="st20" d="M550.7,96.6c4.7,0.8,21-3.7,23.9-3.8s7,0,9.8-0.4c2.8-0.5,10.7,0.6,13.2,1.3c2.5,0.7,2.7,2.3,5.6,3
		c2.8,0.7,23.7-0.4,32.5-1s12.8,1,16.7-0.3s-0.8-3.4-6-4.7c-5.2-1.3-6.8-3.8-15-4.7c-8.1-0.9-22.2,1.3-22.2,1.3s-13.5,2.6-23.5,2.1
		s-14.1-4.1-28.6-1.7C542.6,90,546.1,95.8,550.7,96.6z"/>
	<path class="st21" d="M550.7,96.6c4.7,0.8,21-3.7,23.9-3.8s7,0,9.8-0.4c2.8-0.5,10.7,0.6,13.2,1.3c2.5,0.7,2.7,2.3,5.6,3
		c2.8,0.7,23.7-0.4,32.5-1s12.8,1,16.7-0.3s-0.8-3.4-6-4.7c-5.2-1.3-6.8,3.2-15,2.3c-8.1-0.9-16.1,0.8-22.2,2.3
		c-6.1,1.4-4.9-2.5-11-3c-4-0.3-8.5-0.7-12.5-0.9c-4.3-0.2-7.7-1.7-11.3-0.8c-4.8,1.1-10,2.8-18.3,4.1c-9,1.5-10.1-2.8-9.3-0.7
		C547.3,95.3,548.9,96.3,550.7,96.6z"/>
	<path class="st16" d="M609.1,97.5c0,0,24.7-5.4,47.2-5c1.6,0,3.2,0.1,4.8,0.1c9.8,0.3,8.8,7-0.5,6.4c-26.8-1.7-46.1,1.8-46.1,1.8
		L609.1,97.5z"/>
	<path class="st22" d="M559.2,88.4c0.1,0.2-2.2,0.4-4.4,1.3c-0.9,0.4-1.9,1.6-2.5,2c-2.2,1.4-3.7,0.8-3.6,0.1
		c0.1-0.7,1.7-1.6,4.1-2.4S559.1,88.1,559.2,88.4z"/>
	<path class="st15" d="M606.7,88.7c4.9-1,8.2-1.4,14.2-1.9c5.5-0.4,9.8-0.1,11.1,0c2.8,0.2,3.4,0.9,3.4,0.9s-0.8,0.6-3.9,0.1
		c-1-0.1-6.2-0.7-11.4-0.2C609.6,88.5,600.8,89.8,606.7,88.7z"/>
</g>
</svg>
