<svg id="svg" version="1.1" xmlns="http://www.w3.org/2000/svg" xmlns:xlink="http://www.w3.org/1999/xlink" width="400" height="209.33333333333334" viewBox="0, 0, 400,209.33333333333334"><g id="svgg"><path id="path0" d="M86.178 66.947 C 83.944 67.574,84.314 69.753,86.757 70.365 C 92.164 71.717,94.067 72.873,94.739 75.215 C 95.314 77.221,95.251 133.251,94.672 134.836 C 93.828 137.145,92.560 138.077,88.393 139.453 C 87.308 139.811,86.301 140.105,86.157 140.105 C 85.732 140.105,84.397 141.480,84.405 141.910 C 84.428 143.284,85.852 143.664,89.948 143.388 C 94.293 143.095,122.037 143.094,133.720 143.385 C 145.982 143.692,145.119 143.916,145.529 140.308 C 145.942 136.670,146.207 135.330,147.312 131.309 C 147.486 130.675,147.915 129.116,148.265 127.844 C 149.819 122.189,147.696 119.897,145.305 124.648 C 144.997 125.259,144.466 126.325,144.124 127.016 C 143.782 127.707,143.335 128.602,143.130 129.005 C 141.402 132.413,137.515 135.990,134.246 137.183 L 132.553 137.801 123.487 137.801 C 113.193 137.801,113.061 137.784,111.513 136.236 C 109.834 134.557,109.948 136.841,109.948 104.910 C 109.948 73.946,109.885 75.605,111.111 73.998 C 111.942 72.908,116.078 71.132,119.321 70.471 C 121.534 70.021,122.394 68.399,120.976 67.351 C 120.291 66.845,115.276 66.802,106.806 67.229 C 103.960 67.373,101.384 67.378,99.162 67.244 C 94.817 66.981,86.716 66.796,86.178 66.947 M288.070 84.507 C 287.729 84.689,286.928 85.329,286.290 85.929 C 285.653 86.530,284.473 87.585,283.669 88.275 C 282.865 88.964,282.017 89.703,281.784 89.916 C 280.585 91.016,275.622 94.587,273.903 95.588 C 270.689 97.458,270.599 97.591,271.266 99.504 C 271.693 100.729,271.973 100.942,273.167 100.950 C 274.874 100.962,276.685 101.474,277.225 102.097 L 277.696 102.641 277.697 117.656 C 277.697 133.980,277.710 134.196,278.894 137.170 C 279.582 138.897,279.881 139.375,281.191 140.844 C 285.189 145.322,294.118 145.807,301.620 141.954 C 306.752 139.318,308.570 137.238,307.247 135.516 L 306.859 135.011 305.419 135.742 C 300.743 138.116,295.266 137.902,292.871 135.251 C 290.498 132.624,290.257 130.816,290.278 115.761 C 290.300 99.771,289.224 101.506,299.205 101.361 L 306.443 101.257 306.819 100.555 C 307.556 99.180,307.757 97.176,307.270 96.073 L 306.842 95.106 299.023 95.040 C 288.738 94.953,289.254 95.413,290.485 87.417 C 290.741 85.751,290.724 85.205,290.402 84.782 C 290.002 84.256,288.805 84.115,288.070 84.507 M176.230 93.834 C 173.123 94.532,172.177 94.853,169.843 96.007 C 151.773 104.937,148.948 130.070,164.835 140.569 C 170.514 144.322,177.315 145.439,185.445 143.955 C 195.633 142.096,202.589 135.370,205.456 124.607 C 207.433 117.185,205.772 108.861,201.153 103.039 C 195.344 95.718,184.948 91.878,176.230 93.834 M236.188 93.515 C 236.127 93.577,235.475 93.721,234.740 93.835 C 216.847 96.625,206.919 119.303,216.968 134.433 C 221.723 141.591,230.831 145.449,240.524 144.409 C 243.357 144.105,247.179 143.333,248.272 142.844 C 248.503 142.740,249.333 142.367,250.117 142.014 C 255.418 139.626,260.437 134.379,262.474 129.094 C 268.213 114.201,262.427 100.428,248.063 94.795 C 245.353 93.732,236.884 92.819,236.188 93.515 M181.127 98.006 C 189.019 99.502,193.825 112.181,192.146 127.079 C 191.104 136.331,187.994 140.119,181.406 140.162 C 175.560 140.199,170.747 134.252,168.819 124.607 C 167.741 119.215,168.138 108.734,169.560 105.026 C 170.093 103.638,170.947 101.990,171.133 101.990 C 171.230 101.990,171.309 101.871,171.309 101.727 C 171.309 101.251,173.544 99.330,174.776 98.747 C 176.635 97.868,178.964 97.596,181.127 98.006 M239.556 98.006 C 243.691 98.790,247.310 102.942,249.326 109.215 C 249.622 110.136,249.962 111.408,250.082 112.042 C 250.202 112.675,250.384 113.618,250.486 114.136 C 251.310 118.333,250.791 128.530,249.537 132.802 C 247.398 140.087,238.857 142.731,233.676 137.713 C 228.033 132.248,225.715 122.673,227.003 110.157 C 227.915 101.305,232.672 96.700,239.556 98.006 " stroke="none" fill="#fafafa" fill-rule="evenodd"></path><path id="path1" d="M0.000 104.712 L 0.000 209.424 200.000 209.424 L 400.000 209.424 400.000 104.712 L 400.000 0.000 200.000 0.000 L 0.000 0.000 0.000 104.712 M103.037 66.864 C 106.665 66.865,112.059 66.794,115.024 66.705 L 120.414 66.543 121.135 67.093 C 122.764 68.336,121.499 70.785,119.227 70.785 C 116.980 70.785,111.556 73.493,110.739 75.023 L 110.262 75.916 110.262 104.712 C 110.262 136.637,110.170 134.474,111.587 135.993 C 112.980 137.486,112.989 137.487,123.351 137.487 C 133.550 137.487,133.046 137.540,135.890 136.177 C 137.287 135.508,141.465 131.494,142.057 130.253 C 142.137 130.085,142.405 129.618,142.653 129.215 C 142.901 128.812,143.666 127.351,144.353 125.969 C 146.350 121.952,147.357 121.102,148.569 122.410 C 149.377 123.282,149.392 124.739,148.622 127.539 C 146.702 134.518,146.146 137.062,145.783 140.524 C 145.421 143.971,145.437 143.964,137.864 143.813 C 106.724 143.188,100.488 143.188,88.097 143.812 C 85.593 143.938,84.213 143.309,84.195 142.035 C 84.182 141.060,85.634 139.686,86.677 139.686 C 86.924 139.686,87.290 139.598,87.490 139.492 C 87.690 139.385,88.353 139.146,88.963 138.960 C 92.004 138.037,93.886 136.592,94.450 134.745 C 94.723 133.853,94.764 129.898,94.764 104.712 L 94.764 75.707 94.316 74.764 C 93.759 73.591,92.746 72.650,91.518 72.163 C 91.000 71.958,90.435 71.721,90.262 71.637 C 90.089 71.553,89.241 71.314,88.377 71.106 C 85.819 70.488,85.028 70.053,84.452 68.942 C 84.082 68.229,84.288 67.726,85.200 67.111 L 85.969 66.593 91.204 66.727 C 94.084 66.801,99.408 66.863,103.037 66.864 M290.061 84.193 C 290.940 84.663,291.025 88.700,290.225 91.876 C 289.539 94.596,289.738 94.660,298.960 94.660 C 307.536 94.660,307.006 94.579,307.603 95.978 C 308.263 97.524,307.401 101.223,306.326 101.460 C 306.072 101.516,302.801 101.587,299.058 101.618 C 291.623 101.681,291.488 101.703,290.922 102.945 C 290.537 103.790,290.586 128.672,290.976 130.471 C 292.026 135.310,294.027 136.966,298.818 136.964 C 301.568 136.963,302.908 136.671,305.085 135.597 C 307.086 134.610,308.063 135.093,308.063 137.068 C 308.063 138.703,301.281 143.074,297.173 144.088 C 289.608 145.955,283.164 144.308,279.894 139.671 C 279.284 138.807,278.974 138.209,278.542 137.068 C 277.413 134.079,277.434 134.427,277.342 117.767 L 277.255 102.236 276.527 101.891 C 276.127 101.701,275.119 101.498,274.287 101.440 C 271.629 101.255,271.433 101.117,270.885 99.040 C 270.502 97.588,270.819 96.956,272.308 96.202 C 273.661 95.516,275.987 94.065,276.532 93.566 C 276.755 93.361,277.007 93.194,277.093 93.194 C 277.178 93.194,277.372 93.073,277.524 92.925 C 277.677 92.778,278.414 92.190,279.162 91.619 C 279.911 91.048,280.712 90.424,280.942 90.233 C 282.725 88.754,284.704 87.027,285.829 85.969 C 287.949 83.975,288.905 83.574,290.061 84.193 M185.562 93.405 C 187.057 93.700,188.913 94.215,189.369 94.463 C 189.569 94.571,189.858 94.660,190.012 94.660 C 190.561 94.660,194.823 96.990,196.402 98.154 C 199.584 100.498,202.352 103.727,203.937 106.942 C 205.339 109.786,205.357 109.839,206.262 113.773 C 206.558 115.058,206.559 120.125,206.264 121.767 C 203.794 135.498,196.066 143.031,182.827 144.610 C 168.790 146.284,158.605 139.674,154.749 126.387 C 154.100 124.150,154.098 116.052,154.746 114.783 C 154.840 114.600,154.978 114.046,155.054 113.551 C 155.129 113.057,155.276 112.491,155.379 112.295 C 155.482 112.098,155.872 111.136,156.245 110.157 C 156.619 109.178,157.124 108.047,157.369 107.644 C 157.613 107.241,157.997 106.558,158.221 106.126 C 158.446 105.694,158.702 105.340,158.791 105.340 C 158.880 105.340,158.953 105.245,158.953 105.129 C 158.953 103.382,166.294 97.239,170.681 95.314 C 171.545 94.935,172.440 94.540,172.670 94.437 C 173.337 94.137,175.902 93.580,178.743 93.119 C 179.712 92.962,184.286 93.154,185.562 93.405 M243.979 93.409 C 249.745 94.595,254.650 97.268,258.396 101.264 C 260.725 103.749,262.891 107.304,263.750 110.052 C 263.966 110.743,264.221 111.545,264.317 111.832 C 265.179 114.415,265.042 121.272,264.056 124.982 C 263.820 125.870,263.577 126.857,263.517 127.175 C 263.457 127.494,263.324 127.805,263.222 127.868 C 263.120 127.931,263.037 128.142,263.038 128.337 C 263.039 128.744,261.149 132.635,260.899 132.740 C 260.808 132.778,260.733 132.903,260.733 133.017 C 260.733 134.666,254.185 140.466,250.366 142.200 C 249.560 142.566,248.739 142.950,248.541 143.053 C 247.067 143.823,240.639 144.886,237.318 144.909 C 234.910 144.926,230.052 144.186,229.060 143.652 C 228.860 143.544,228.592 143.455,228.464 143.455 C 228.215 143.455,227.397 143.110,225.554 142.226 C 221.261 140.167,217.151 136.032,215.119 131.728 C 214.349 130.095,214.096 129.434,213.436 127.330 C 212.440 124.155,212.426 117.049,213.410 113.822 C 214.140 111.423,214.608 110.205,215.539 108.272 C 216.121 107.063,216.680 106.042,216.781 106.003 C 216.881 105.965,216.963 105.837,216.963 105.719 C 216.963 105.602,217.270 105.115,217.644 104.638 C 218.018 104.161,218.464 103.582,218.634 103.351 C 222.106 98.637,229.453 94.306,235.497 93.409 C 236.304 93.289,237.199 93.151,237.487 93.102 C 238.370 92.950,242.759 93.158,243.979 93.409 M177.643 98.258 C 173.932 98.650,170.782 101.608,169.652 105.759 C 169.511 106.277,169.311 106.984,169.206 107.330 C 169.001 108.011,168.648 111.969,168.450 115.812 C 168.326 118.214,168.764 123.449,169.247 125.340 C 169.878 127.808,170.154 128.665,170.935 130.576 C 172.004 133.189,173.721 135.873,175.301 137.401 C 179.799 141.752,187.491 140.323,190.065 134.660 C 192.525 129.247,192.943 115.174,190.802 109.843 C 190.710 109.613,190.516 109.047,190.371 108.586 C 188.125 101.428,183.460 97.642,177.643 98.258 M236.072 98.258 C 232.525 98.633,230.150 100.695,228.278 105.026 C 227.232 107.444,226.563 118.802,227.242 122.605 C 228.117 127.508,228.436 128.595,229.950 131.831 C 231.601 135.362,233.832 138.012,236.130 139.173 C 237.632 139.931,242.236 140.078,243.455 139.406 C 243.801 139.216,244.169 139.060,244.273 139.059 C 244.378 139.058,244.772 138.822,245.150 138.534 C 245.527 138.246,245.894 138.010,245.965 138.010 C 246.163 138.010,247.042 136.973,247.829 135.812 C 250.830 131.382,251.635 118.157,249.378 110.366 C 246.847 101.634,242.402 97.588,236.072 98.258 " stroke="none" fill="#040404" fill-rule="evenodd"></path><path id="path2" d="M91.885 66.958 C 92.259 67.004,92.872 67.004,93.246 66.958 C 93.620 66.911,93.314 66.873,92.565 66.873 C 91.817 66.873,91.510 66.911,91.885 66.958 M113.241 66.957 C 113.613 67.004,114.273 67.004,114.707 66.959 C 115.142 66.914,114.838 66.876,114.031 66.875 C 113.225 66.874,112.870 66.911,113.241 66.957 M97.749 67.167 C 98.123 67.214,98.736 67.214,99.110 67.167 C 99.484 67.121,99.178 67.083,98.429 67.083 C 97.681 67.083,97.374 67.121,97.749 67.167 M106.649 67.168 C 107.081 67.213,107.788 67.213,108.220 67.168 C 108.652 67.123,108.298 67.086,107.435 67.086 C 106.571 67.086,106.217 67.123,106.649 67.168 M101.839 67.379 C 102.389 67.423,103.238 67.422,103.724 67.378 C 104.210 67.334,103.759 67.299,102.723 67.299 C 101.686 67.300,101.288 67.336,101.839 67.379 M84.515 68.586 C 84.580 68.932,84.836 69.403,85.084 69.634 L 85.534 70.052 85.203 69.634 C 85.021 69.403,84.764 68.932,84.633 68.586 L 84.395 67.958 84.515 68.586 M87.347 70.651 C 87.395 70.693,87.717 70.790,88.063 70.867 C 88.522 70.970,88.606 70.950,88.377 70.795 C 88.094 70.604,87.137 70.470,87.347 70.651 M92.984 72.736 C 92.984 72.772,93.291 73.078,93.665 73.416 L 94.346 74.031 93.730 73.351 C 93.157 72.716,92.984 72.574,92.984 72.736 M94.803 76.230 C 94.871 76.749,94.961 77.212,95.003 77.260 C 95.161 77.442,95.041 76.107,94.864 75.707 C 94.740 75.427,94.720 75.601,94.803 76.230 M286.033 85.973 C 285.493 86.489,285.120 86.911,285.204 86.911 C 285.289 86.911,285.774 86.487,286.283 85.969 C 287.475 84.754,287.308 84.757,286.033 85.973 M284.071 87.801 L 283.455 88.482 284.136 87.867 C 284.771 87.293,284.913 87.120,284.751 87.120 C 284.715 87.120,284.409 87.427,284.071 87.801 M290.310 88.586 C 290.310 88.990,290.353 89.154,290.406 88.953 C 290.459 88.751,290.459 88.421,290.406 88.220 C 290.353 88.018,290.310 88.183,290.310 88.586 M281.241 90.209 L 280.733 90.785 281.361 90.262 C 281.707 89.974,282.029 89.715,282.077 89.686 C 282.125 89.657,282.071 89.634,281.956 89.634 C 281.842 89.634,281.520 89.893,281.241 90.209 M289.896 92.670 C 289.898 93.131,289.941 93.295,289.991 93.034 C 290.041 92.774,290.039 92.397,289.987 92.197 C 289.934 91.996,289.893 92.209,289.896 92.670 M180.267 93.347 C 180.760 93.392,181.514 93.391,181.943 93.346 C 182.372 93.301,181.969 93.265,181.047 93.266 C 180.126 93.266,179.775 93.303,180.267 93.347 M238.906 93.347 C 239.399 93.392,240.153 93.391,240.581 93.346 C 241.010 93.301,240.607 93.265,239.686 93.266 C 238.764 93.266,238.413 93.303,238.906 93.347 M235.079 93.613 C 234.508 93.758,234.499 93.773,234.974 93.782 C 235.262 93.788,235.686 93.712,235.916 93.613 C 236.433 93.391,235.951 93.391,235.079 93.613 M295.641 95.026 C 297.620 95.060,300.919 95.060,302.971 95.026 C 305.023 94.992,303.403 94.963,299.372 94.963 C 295.340 94.963,293.661 94.991,295.641 95.026 M165.759 98.343 L 165.131 98.883 165.812 98.432 C 166.186 98.185,166.492 97.941,166.492 97.891 C 166.492 97.735,166.403 97.789,165.759 98.343 M178.063 97.945 C 178.264 97.998,178.594 97.998,178.796 97.945 C 178.997 97.893,178.832 97.850,178.429 97.850 C 178.026 97.850,177.861 97.893,178.063 97.945 M179.529 97.945 C 179.730 97.998,180.060 97.998,180.262 97.945 C 180.463 97.893,180.298 97.850,179.895 97.850 C 179.492 97.850,179.327 97.893,179.529 97.945 M236.599 97.949 C 236.860 97.999,237.237 97.997,237.437 97.945 C 237.637 97.893,237.424 97.852,236.963 97.854 C 236.503 97.856,236.339 97.899,236.599 97.949 M176.021 98.220 C 175.757 98.333,175.718 98.400,175.916 98.400 C 176.089 98.400,176.419 98.319,176.649 98.220 C 176.913 98.106,176.952 98.040,176.754 98.040 C 176.581 98.040,176.251 98.121,176.021 98.220 M234.450 98.220 C 234.186 98.333,234.148 98.400,234.346 98.400 C 234.518 98.400,234.848 98.319,235.079 98.220 C 235.343 98.106,235.381 98.040,235.183 98.040 C 235.010 98.040,234.681 98.121,234.450 98.220 M184.398 99.575 C 184.743 99.858,185.115 100.093,185.224 100.097 C 185.333 100.101,185.102 99.869,184.712 99.581 C 183.799 98.908,183.579 98.903,184.398 99.575 M199.162 100.838 C 199.904 101.586,200.559 102.199,200.616 102.199 C 200.674 102.199,200.114 101.586,199.372 100.838 C 198.630 100.089,197.975 99.476,197.918 99.476 C 197.860 99.476,198.420 100.089,199.162 100.838 M162.403 101.204 L 160.942 102.723 162.461 101.262 C 163.871 99.906,164.075 99.686,163.921 99.686 C 163.889 99.686,163.206 100.369,162.403 101.204 M172.345 100.471 L 171.623 101.257 172.408 100.535 C 173.139 99.863,173.290 99.686,173.130 99.686 C 173.095 99.686,172.742 100.039,172.345 100.471 M230.774 100.471 L 230.052 101.257 230.838 100.535 C 231.270 100.138,231.623 99.784,231.623 99.749 C 231.623 99.590,231.446 99.740,230.774 100.471 M257.696 100.942 C 258.380 101.634,258.987 102.199,259.044 102.199 C 259.102 102.199,258.590 101.634,257.906 100.942 C 257.222 100.251,256.615 99.686,256.558 99.686 C 256.500 99.686,257.012 100.251,257.696 100.942 M220.623 101.414 L 219.162 102.932 220.681 101.472 C 221.516 100.668,222.199 99.985,222.199 99.953 C 222.199 99.800,221.979 100.003,220.623 101.414 M243.372 99.948 C 243.422 99.976,243.933 100.424,244.507 100.942 L 245.550 101.885 244.616 100.890 C 244.103 100.343,243.592 99.895,243.482 99.895 C 243.371 99.895,243.322 99.919,243.372 99.948 M186.178 101.047 C 186.569 101.450,186.936 101.780,186.993 101.780 C 187.051 101.780,186.778 101.450,186.387 101.047 C 185.997 100.644,185.630 100.314,185.572 100.314 C 185.515 100.314,185.787 100.644,186.178 101.047 M271.806 100.785 C 272.031 101.072,272.371 101.143,273.376 101.112 L 274.660 101.073 273.410 100.996 C 272.723 100.953,272.016 100.806,271.840 100.669 C 271.558 100.450,271.554 100.464,271.806 100.785 M291.941 101.595 C 291.326 101.841,290.681 102.392,290.681 102.673 C 290.681 102.784,290.849 102.665,291.056 102.410 C 291.262 102.155,291.898 101.822,292.469 101.668 C 293.069 101.507,293.287 101.389,292.984 101.389 C 292.696 101.388,292.227 101.481,291.941 101.595 M187.434 102.565 C 187.708 102.940,187.965 103.246,188.005 103.246 C 188.164 103.246,187.645 102.461,187.301 102.182 C 187.075 101.998,187.126 102.144,187.434 102.565 M277.435 112.847 C 277.464 118.682,277.514 125.293,277.545 127.539 C 277.576 129.785,277.621 125.120,277.645 117.173 C 277.670 109.225,277.621 102.614,277.536 102.480 C 277.451 102.347,277.406 107.012,277.435 112.847 M290.360 116.021 C 290.360 122.759,290.386 125.516,290.419 122.147 C 290.451 118.777,290.451 113.264,290.419 109.895 C 290.386 106.526,290.360 109.283,290.360 116.021 M248.621 107.655 C 248.744 108.006,248.883 108.255,248.931 108.207 C 249.034 108.104,248.639 107.016,248.498 107.016 C 248.443 107.016,248.499 107.303,248.621 107.655 M227.274 108.063 C 227.274 108.466,227.317 108.631,227.369 108.429 C 227.422 108.228,227.422 107.898,227.369 107.696 C 227.317 107.495,227.274 107.660,227.274 108.063 M249.663 110.785 C 249.663 110.958,249.744 111.288,249.843 111.518 C 249.956 111.782,250.023 111.821,250.023 111.623 C 250.023 111.450,249.942 111.120,249.843 110.890 C 249.729 110.626,249.663 110.587,249.663 110.785 M168.426 111.623 C 168.426 112.026,168.469 112.191,168.521 111.990 C 168.574 111.788,168.574 111.458,168.521 111.257 C 168.469 111.055,168.426 111.220,168.426 111.623 M226.863 112.461 C 226.863 112.979,226.904 113.191,226.954 112.932 C 227.004 112.673,227.004 112.249,226.954 111.990 C 226.904 111.730,226.863 111.942,226.863 112.461 M155.104 113.830 C 155.033 114.017,154.982 114.328,154.992 114.520 C 155.002 114.712,155.093 114.591,155.194 114.251 C 155.392 113.590,155.322 113.263,155.104 113.830 M226.637 116.754 C 226.632 118.597,226.696 120.529,226.778 121.047 C 226.861 121.565,226.896 120.199,226.855 118.010 C 226.763 113.009,226.648 112.350,226.637 116.754 M168.252 117.173 C 168.253 119.016,168.285 119.742,168.324 118.786 C 168.362 117.830,168.362 116.322,168.323 115.435 C 168.284 114.548,168.252 115.330,168.252 117.173 M264.555 115.079 C 264.558 115.539,264.601 115.703,264.651 115.443 C 264.701 115.182,264.699 114.805,264.647 114.605 C 264.594 114.405,264.553 114.618,264.555 115.079 M213.101 115.928 C 213.022 116.348,212.999 116.734,213.050 116.785 C 213.102 116.836,213.208 116.534,213.287 116.114 C 213.366 115.694,213.388 115.308,213.337 115.257 C 213.286 115.206,213.179 115.508,213.101 115.928 M154.604 116.859 C 154.604 117.262,154.647 117.427,154.699 117.225 C 154.752 117.024,154.752 116.694,154.699 116.492 C 154.647 116.291,154.604 116.455,154.604 116.859 M192.340 120.838 C 192.340 123.314,192.371 124.327,192.408 123.089 C 192.445 121.851,192.445 119.825,192.408 118.586 C 192.371 117.348,192.340 118.361,192.340 120.838 M250.767 120.733 C 250.767 122.806,250.799 123.626,250.837 122.555 C 250.875 121.484,250.875 119.787,250.836 118.785 C 250.798 117.783,250.767 118.660,250.767 120.733 M154.394 118.325 C 154.394 118.728,154.437 118.893,154.490 118.691 C 154.543 118.490,154.543 118.160,154.490 117.958 C 154.437 117.757,154.394 117.921,154.394 118.325 M212.832 118.953 C 212.832 119.471,212.873 119.683,212.923 119.424 C 212.973 119.165,212.973 118.741,212.923 118.482 C 212.873 118.223,212.832 118.435,212.832 118.953 M264.560 120.419 C 264.560 120.937,264.600 121.149,264.650 120.890 C 264.700 120.631,264.700 120.207,264.650 119.948 C 264.600 119.688,264.560 119.901,264.560 120.419 M212.835 121.990 C 212.836 122.565,212.877 122.776,212.925 122.458 C 212.973 122.140,212.972 121.668,212.922 121.411 C 212.873 121.153,212.833 121.414,212.835 121.990 M205.917 121.990 C 205.919 122.450,205.962 122.614,206.012 122.354 C 206.062 122.093,206.060 121.716,206.008 121.516 C 205.955 121.316,205.914 121.529,205.917 121.990 M154.384 122.618 C 154.376 122.963,154.448 123.623,154.543 124.084 C 154.771 125.186,154.791 124.196,154.566 122.932 C 154.440 122.225,154.394 122.147,154.384 122.618 M168.601 123.578 C 168.609 123.856,168.701 124.272,168.806 124.503 C 168.938 124.795,168.957 124.668,168.868 124.084 C 168.720 123.111,168.580 122.846,168.601 123.578 M148.958 124.398 C 148.958 124.916,148.998 125.128,149.048 124.869 C 149.098 124.610,149.098 124.186,149.048 123.927 C 148.998 123.668,148.958 123.880,148.958 124.398 M192.090 126.283 C 192.090 126.686,192.134 126.851,192.186 126.649 C 192.239 126.448,192.239 126.118,192.186 125.916 C 192.134 125.715,192.090 125.880,192.090 126.283 M155.003 126.702 C 155.003 126.874,155.084 127.204,155.183 127.435 C 155.297 127.699,155.363 127.737,155.363 127.539 C 155.363 127.366,155.282 127.037,155.183 126.806 C 155.070 126.542,155.003 126.504,155.003 126.702 M250.310 128.586 C 250.310 128.990,250.353 129.154,250.406 128.953 C 250.459 128.751,250.459 128.421,250.406 128.220 C 250.353 128.018,250.310 128.183,250.310 128.586 M290.520 129.005 C 290.520 129.408,290.563 129.573,290.616 129.372 C 290.668 129.170,290.668 128.840,290.616 128.639 C 290.563 128.437,290.520 128.602,290.520 129.005 M142.698 129.476 C 141.977 130.699,141.930 130.804,142.297 130.366 C 142.722 129.860,143.089 129.215,142.952 129.215 C 142.897 129.215,142.783 129.332,142.698 129.476 M191.672 129.843 C 191.672 130.246,191.715 130.411,191.767 130.209 C 191.820 130.008,191.820 129.678,191.767 129.476 C 191.715 129.275,191.672 129.440,191.672 129.843 M139.476 133.508 C 138.618 134.372,137.963 135.079,138.021 135.079 C 138.079 135.079,138.828 134.372,139.686 133.508 C 140.544 132.644,141.199 131.937,141.141 131.937 C 141.084 131.937,140.335 132.644,139.476 133.508 M109.962 133.002 C 109.970 133.280,110.062 133.696,110.167 133.927 C 110.299 134.219,110.318 134.092,110.229 133.508 C 110.081 132.535,109.941 132.270,109.962 133.002 M94.900 133.229 C 94.883 133.536,94.815 133.960,94.749 134.171 C 94.635 134.534,94.641 134.535,94.867 134.183 C 94.998 133.979,95.066 133.555,95.019 133.241 L 94.932 132.670 94.900 133.229 M158.534 134.660 C 158.780 135.005,159.029 135.288,159.086 135.288 C 159.144 135.288,158.990 135.005,158.743 134.660 C 158.497 134.314,158.249 134.031,158.191 134.031 C 158.134 134.031,158.288 134.314,158.534 134.660 M292.984 135.393 C 293.375 135.796,293.742 136.126,293.799 136.126 C 293.857 136.126,293.584 135.796,293.194 135.393 C 292.803 134.990,292.436 134.660,292.379 134.660 C 292.321 134.660,292.594 134.990,292.984 135.393 M257.062 137.225 L 255.602 138.743 257.120 137.283 C 258.531 135.927,258.734 135.707,258.581 135.707 C 258.549 135.707,257.866 136.390,257.062 137.225 M198.632 137.225 L 197.382 138.534 198.691 137.284 C 199.411 136.597,200.000 136.008,200.000 135.975 C 200.000 135.820,199.793 136.009,198.632 137.225 M307.693 136.963 C 307.693 137.366,307.736 137.531,307.788 137.330 C 307.841 137.128,307.841 136.798,307.788 136.597 C 307.736 136.395,307.693 136.560,307.693 136.963 M161.152 137.801 C 161.836 138.492,162.442 139.058,162.500 139.058 C 162.558 139.058,162.045 138.492,161.361 137.801 C 160.677 137.110,160.071 136.545,160.013 136.545 C 159.956 136.545,160.468 137.110,161.152 137.801 M246.702 137.487 C 246.193 138.005,245.824 138.429,245.881 138.429 C 245.939 138.429,246.402 138.005,246.911 137.487 C 247.420 136.969,247.789 136.545,247.731 136.545 C 247.674 136.545,247.210 136.969,246.702 137.487 M174.869 137.487 C 175.260 137.890,175.627 138.220,175.684 138.220 C 175.742 138.220,175.469 137.890,175.079 137.487 C 174.688 137.084,174.321 136.754,174.263 136.754 C 174.206 136.754,174.478 137.084,174.869 137.487 M188.158 137.644 L 187.330 138.534 188.220 137.706 C 189.048 136.936,189.206 136.754,189.048 136.754 C 189.014 136.754,188.613 137.154,188.158 137.644 M295.497 136.954 C 295.670 137.071,295.992 137.168,296.213 137.170 C 296.749 137.174,296.582 137.054,295.812 136.882 C 295.353 136.779,295.268 136.799,295.497 136.954 M219.581 137.801 C 220.031 138.262,220.446 138.639,220.504 138.639 C 220.561 138.639,220.240 138.262,219.791 137.801 C 219.341 137.340,218.925 136.963,218.868 136.963 C 218.810 136.963,219.131 137.340,219.581 137.801 M297.749 137.326 C 298.238 137.370,299.039 137.370,299.529 137.326 C 300.018 137.282,299.618 137.246,298.639 137.246 C 297.660 137.246,297.259 137.282,297.749 137.326 M113.822 137.592 C 114.052 137.691,114.429 137.769,114.660 137.765 C 114.996 137.761,114.976 137.726,114.555 137.592 C 113.839 137.362,113.288 137.362,113.822 137.592 M132.356 137.592 C 131.935 137.726,131.915 137.761,132.251 137.765 C 132.482 137.769,132.859 137.691,133.089 137.592 C 133.623 137.362,133.072 137.362,132.356 137.592 M306.898 138.482 L 306.283 139.162 306.963 138.547 C 307.338 138.209,307.644 137.903,307.644 137.867 C 307.644 137.705,307.471 137.847,306.898 138.482 M145.684 138.473 C 145.613 138.737,145.565 139.236,145.577 139.581 C 145.592 140.015,145.653 139.887,145.773 139.169 C 145.956 138.075,145.902 137.657,145.684 138.473 M234.328 138.296 C 234.607 138.639,235.393 139.159,235.393 139.000 C 235.393 138.960,235.086 138.703,234.712 138.429 C 234.291 138.120,234.145 138.070,234.328 138.296 M85.090 140.644 L 84.503 141.182 85.183 140.709 C 85.558 140.448,85.864 140.206,85.864 140.170 C 85.864 140.005,85.632 140.147,85.090 140.644 M180.683 140.253 C 180.944 140.303,181.321 140.301,181.521 140.249 C 181.721 140.196,181.508 140.155,181.047 140.158 C 180.586 140.160,180.423 140.203,180.683 140.253 M97.546 143.191 C 98.155 143.234,99.097 143.233,99.641 143.190 C 100.184 143.147,99.686 143.113,98.534 143.113 C 97.382 143.114,96.938 143.149,97.546 143.191 M117.339 143.192 C 118.237 143.232,119.651 143.232,120.481 143.192 C 121.311 143.152,120.576 143.120,118.848 143.120 C 117.120 143.121,116.441 143.153,117.339 143.192 M92.618 143.401 C 93.280 143.442,94.364 143.442,95.026 143.401 C 95.688 143.359,95.147 143.325,93.822 143.325 C 92.497 143.325,91.955 143.359,92.618 143.401 M124.042 143.402 C 125.055 143.441,126.657 143.440,127.602 143.402 C 128.547 143.363,127.717 143.332,125.759 143.332 C 123.801 143.332,123.028 143.364,124.042 143.402 M87.801 143.605 C 88.118 143.653,88.636 143.653,88.953 143.605 C 89.270 143.558,89.010 143.518,88.377 143.518 C 87.743 143.518,87.484 143.558,87.801 143.605 M135.969 143.611 C 136.861 143.650,138.322 143.650,139.215 143.611 C 140.107 143.572,139.377 143.540,137.592 143.540 C 135.806 143.540,135.076 143.572,135.969 143.611 M171.832 143.874 C 172.063 143.973,172.393 144.054,172.565 144.054 C 172.763 144.054,172.725 143.988,172.461 143.874 C 172.230 143.775,171.901 143.694,171.728 143.694 C 171.530 143.694,171.568 143.761,171.832 143.874 M174.819 144.441 C 175.080 144.491,175.457 144.490,175.657 144.437 C 175.857 144.385,175.644 144.344,175.183 144.346 C 174.723 144.348,174.559 144.391,174.819 144.441 M182.356 144.441 C 182.615 144.491,183.039 144.491,183.298 144.441 C 183.558 144.391,183.346 144.350,182.827 144.350 C 182.309 144.350,182.097 144.391,182.356 144.441 M233.246 144.441 C 233.505 144.491,233.929 144.491,234.188 144.441 C 234.448 144.391,234.236 144.350,233.717 144.350 C 233.199 144.350,232.987 144.391,233.246 144.441 M240.785 144.441 C 241.045 144.491,241.469 144.491,241.728 144.441 C 241.987 144.391,241.775 144.350,241.257 144.350 C 240.738 144.350,240.526 144.391,240.785 144.441 M288.220 144.438 C 288.421 144.490,288.751 144.490,288.953 144.438 C 289.154 144.385,288.990 144.342,288.586 144.342 C 288.183 144.342,288.018 144.385,288.220 144.438 M176.492 144.650 C 176.751 144.700,177.175 144.700,177.435 144.650 C 177.694 144.600,177.482 144.560,176.963 144.560 C 176.445 144.560,176.233 144.600,176.492 144.650 M180.683 144.651 C 180.944 144.701,181.321 144.699,181.521 144.647 C 181.721 144.594,181.508 144.553,181.047 144.555 C 180.586 144.558,180.423 144.601,180.683 144.651 M235.026 144.647 C 235.228 144.700,235.558 144.700,235.759 144.647 C 235.961 144.594,235.796 144.551,235.393 144.551 C 234.990 144.551,234.825 144.594,235.026 144.647 M238.901 144.650 C 239.160 144.700,239.584 144.700,239.843 144.650 C 240.102 144.600,239.890 144.560,239.372 144.560 C 238.853 144.560,238.641 144.600,238.901 144.650 M289.793 144.651 C 290.054 144.701,290.430 144.699,290.631 144.647 C 290.831 144.594,290.618 144.553,290.157 144.555 C 289.696 144.558,289.533 144.601,289.793 144.651 M292.827 144.647 C 293.029 144.700,293.359 144.700,293.560 144.647 C 293.762 144.594,293.597 144.551,293.194 144.551 C 292.791 144.551,292.626 144.594,292.827 144.647 " stroke="none" fill="#848484" fill-rule="evenodd"></path><path id="path3" d="M89.860 66.673 C 89.908 66.714,91.455 66.794,93.298 66.848 C 95.159 66.904,96.137 66.879,95.497 66.793 C 94.318 66.635,89.703 66.536,89.860 66.673 M112.827 66.752 C 113.547 66.793,114.725 66.793,115.445 66.752 C 116.165 66.711,115.576 66.678,114.136 66.678 C 112.696 66.678,112.107 66.711,112.827 66.752 M110.003 66.957 C 110.321 67.005,110.792 67.003,111.050 66.954 C 111.308 66.904,111.047 66.865,110.471 66.866 C 109.895 66.868,109.685 66.908,110.003 66.957 M101.943 67.169 C 102.435 67.214,103.189 67.213,103.618 67.168 C 104.047 67.123,103.644 67.087,102.723 67.087 C 101.801 67.088,101.450 67.125,101.943 67.169 M92.775 72.736 C 92.775 72.772,93.081 73.078,93.455 73.416 L 94.136 74.031 93.521 73.351 C 92.948 72.716,92.775 72.574,92.775 72.736 M110.049 104.607 C 110.049 119.351,110.074 125.351,110.105 117.942 C 110.135 110.532,110.135 98.470,110.105 91.136 C 110.074 83.802,110.049 89.864,110.049 104.607 M286.170 85.707 L 285.131 86.806 286.230 85.767 C 286.835 85.195,287.330 84.701,287.330 84.668 C 287.330 84.511,287.136 84.685,286.170 85.707 M290.738 85.864 C 290.738 86.382,290.779 86.594,290.828 86.335 C 290.878 86.076,290.878 85.652,290.828 85.393 C 290.779 85.134,290.738 85.346,290.738 85.864 M290.294 90.471 C 290.273 90.874,290.208 91.440,290.148 91.728 L 290.041 92.251 290.266 91.735 C 290.390 91.451,290.455 90.886,290.412 90.478 L 290.332 89.738 290.294 90.471 M180.163 93.138 C 180.714 93.182,181.562 93.181,182.048 93.137 C 182.534 93.093,182.084 93.058,181.047 93.059 C 180.010 93.059,179.613 93.095,180.163 93.138 M238.802 93.138 C 239.353 93.182,240.201 93.181,240.687 93.137 C 241.173 93.093,240.723 93.058,239.686 93.059 C 238.649 93.059,238.252 93.095,238.802 93.138 M276.754 93.403 C 276.408 93.632,276.220 93.818,276.335 93.816 C 276.545 93.813,277.684 92.996,277.487 92.990 C 277.429 92.989,277.099 93.174,276.754 93.403 M177.961 93.342 C 178.221 93.392,178.598 93.390,178.798 93.338 C 178.998 93.285,178.785 93.244,178.325 93.247 C 177.864 93.249,177.700 93.292,177.961 93.342 M183.613 93.342 C 183.872 93.391,184.296 93.391,184.555 93.342 C 184.814 93.292,184.602 93.251,184.084 93.251 C 183.565 93.251,183.353 93.292,183.613 93.342 M236.390 93.342 C 236.650 93.392,237.027 93.390,237.228 93.338 C 237.428 93.285,237.215 93.244,236.754 93.247 C 236.293 93.249,236.129 93.292,236.390 93.342 M242.254 93.342 C 242.514 93.392,242.891 93.390,243.091 93.338 C 243.292 93.285,243.079 93.244,242.618 93.247 C 242.157 93.249,241.993 93.292,242.254 93.342 M173.298 94.181 C 173.068 94.236,172.792 94.365,172.684 94.467 C 172.577 94.569,172.802 94.563,173.184 94.453 C 174.263 94.144,174.354 93.927,173.298 94.181 M299.372 94.813 C 306.547 94.866,306.709 94.876,307.068 95.310 C 307.270 95.554,307.435 95.663,307.435 95.553 C 307.435 94.707,306.958 94.658,299.355 94.709 L 292.042 94.759 299.372 94.813 M307.711 97.592 C 307.711 98.340,307.749 98.647,307.795 98.272 C 307.842 97.898,307.842 97.285,307.795 96.911 C 307.749 96.537,307.711 96.843,307.711 97.592 M177.647 98.161 C 177.965 98.209,178.436 98.208,178.694 98.158 C 178.952 98.108,178.691 98.069,178.115 98.070 C 177.539 98.072,177.329 98.113,177.647 98.161 M179.843 98.158 C 180.102 98.208,180.526 98.208,180.785 98.158 C 181.045 98.108,180.832 98.068,180.314 98.068 C 179.796 98.068,179.584 98.108,179.843 98.158 M236.076 98.161 C 236.395 98.209,236.866 98.208,237.123 98.158 C 237.381 98.108,237.120 98.069,236.545 98.070 C 235.969 98.072,235.758 98.113,236.076 98.161 M238.272 98.158 C 238.531 98.208,238.955 98.208,239.215 98.158 C 239.474 98.108,239.262 98.068,238.743 98.068 C 238.225 98.068,238.013 98.108,238.272 98.158 M257.592 100.628 C 258.334 101.377,258.988 101.990,259.045 101.990 C 259.103 101.990,258.543 101.377,257.801 100.628 C 257.059 99.880,256.405 99.267,256.347 99.267 C 256.290 99.267,256.850 99.880,257.592 100.628 M162.094 101.257 C 161.236 102.120,160.581 102.827,160.639 102.827 C 160.696 102.827,161.446 102.120,162.304 101.257 C 163.162 100.393,163.817 99.686,163.759 99.686 C 163.702 99.686,162.952 100.393,162.094 101.257 M220.524 101.257 C 219.665 102.120,219.010 102.827,219.068 102.827 C 219.126 102.827,219.875 102.120,220.733 101.257 C 221.591 100.393,222.246 99.686,222.188 99.686 C 222.131 99.686,221.382 100.393,220.524 101.257 M185.759 100.838 C 186.150 101.241,186.517 101.571,186.574 101.571 C 186.632 101.571,186.359 101.241,185.969 100.838 C 185.578 100.435,185.211 100.105,185.153 100.105 C 185.096 100.105,185.368 100.435,185.759 100.838 M244.188 100.838 C 244.579 101.241,244.946 101.571,245.004 101.571 C 245.061 101.571,244.789 101.241,244.398 100.838 C 244.007 100.435,243.640 100.105,243.583 100.105 C 243.525 100.105,243.798 100.435,244.188 100.838 M199.581 101.047 C 199.972 101.450,200.339 101.780,200.396 101.780 C 200.454 101.780,200.181 101.450,199.791 101.047 C 199.400 100.644,199.033 100.314,198.975 100.314 C 198.918 100.314,199.190 100.644,199.581 101.047 M272.725 101.302 C 273.044 101.350,273.515 101.349,273.773 101.299 C 274.030 101.250,273.770 101.210,273.194 101.212 C 272.618 101.213,272.407 101.254,272.725 101.302 M296.819 101.518 C 298.641 101.553,301.562 101.553,303.311 101.518 C 305.061 101.483,303.571 101.454,300.000 101.454 C 296.429 101.454,294.998 101.483,296.819 101.518 M245.746 102.687 C 246.069 103.110,246.375 103.455,246.427 103.455 C 246.572 103.455,245.665 102.230,245.397 102.065 C 245.267 101.984,245.423 102.264,245.746 102.687 M277.377 117.173 C 277.377 125.236,277.403 128.504,277.434 124.435 C 277.466 120.366,277.466 113.769,277.434 109.775 C 277.403 105.781,277.377 109.110,277.377 117.173 M290.569 115.812 C 290.569 122.319,290.596 124.982,290.628 121.728 C 290.661 118.474,290.661 113.149,290.628 109.895 C 290.596 106.641,290.569 109.304,290.569 115.812 M227.112 110.254 C 227.031 110.902,227.010 111.478,227.066 111.533 C 227.121 111.589,227.229 111.100,227.306 110.447 C 227.382 109.794,227.403 109.218,227.352 109.167 C 227.301 109.116,227.193 109.605,227.112 110.254 M168.649 111.414 C 168.649 112.047,168.688 112.306,168.736 111.990 C 168.784 111.673,168.784 111.154,168.736 110.838 C 168.688 110.521,168.649 110.780,168.649 111.414 M155.329 112.408 C 155.167 112.698,154.938 113.823,155.068 113.693 C 155.224 113.537,155.605 112.251,155.495 112.251 C 155.452 112.251,155.378 112.322,155.329 112.408 M168.437 113.613 C 168.438 114.188,168.479 114.399,168.527 114.081 C 168.575 113.763,168.574 113.291,168.524 113.034 C 168.475 112.776,168.435 113.037,168.437 113.613 M206.236 116.813 C 206.319 121.223,206.422 121.712,206.444 117.801 C 206.454 115.958,206.399 114.288,206.320 114.090 C 206.242 113.892,206.204 115.117,206.236 116.813 M213.324 114.040 C 213.252 114.227,213.202 114.537,213.212 114.729 C 213.222 114.921,213.313 114.801,213.414 114.461 C 213.612 113.800,213.542 113.473,213.324 114.040 M191.881 114.974 C 191.881 115.377,191.924 115.542,191.977 115.340 C 192.029 115.139,192.029 114.809,191.977 114.607 C 191.924 114.406,191.881 114.571,191.881 114.974 M226.888 117.068 C 226.888 118.623,226.921 119.259,226.962 118.482 C 227.002 117.704,227.002 116.432,226.962 115.654 C 226.921 114.877,226.888 115.513,226.888 117.068 M154.686 114.877 C 154.614 115.064,154.563 115.375,154.573 115.567 C 154.583 115.759,154.674 115.638,154.775 115.298 C 154.973 114.637,154.903 114.310,154.686 114.877 M264.761 115.812 C 264.761 116.215,264.804 116.380,264.856 116.178 C 264.909 115.976,264.909 115.647,264.856 115.445 C 264.804 115.243,264.761 115.408,264.761 115.812 M192.090 117.068 C 192.090 117.471,192.134 117.636,192.186 117.435 C 192.239 117.233,192.239 116.903,192.186 116.702 C 192.134 116.500,192.090 116.665,192.090 117.068 M212.696 117.723 C 212.529 118.560,212.564 123.094,212.743 123.730 C 212.818 123.996,212.880 122.606,212.880 120.641 C 212.880 116.725,212.883 116.787,212.696 117.723 M264.765 119.267 C 264.767 119.728,264.810 119.892,264.860 119.631 C 264.910 119.371,264.908 118.994,264.856 118.793 C 264.804 118.593,264.763 118.806,264.765 119.267 M154.208 120.524 C 154.209 121.445,154.245 121.796,154.290 121.303 C 154.334 120.811,154.333 120.057,154.288 119.628 C 154.243 119.199,154.207 119.602,154.208 120.524 M168.426 120.209 C 168.426 120.613,168.469 120.777,168.521 120.576 C 168.574 120.374,168.574 120.045,168.521 119.843 C 168.469 119.641,168.426 119.806,168.426 120.209 M168.635 121.885 C 168.635 122.288,168.678 122.453,168.731 122.251 C 168.783 122.050,168.783 121.720,168.731 121.518 C 168.678 121.317,168.635 121.482,168.635 121.885 M227.061 122.199 C 227.064 122.429,227.137 122.901,227.225 123.246 C 227.369 123.810,227.385 123.821,227.389 123.351 C 227.391 123.063,227.317 122.592,227.225 122.304 C 227.094 121.893,227.058 121.871,227.061 122.199 M146.047 122.880 C 145.428 123.730,145.237 124.163,145.747 123.560 C 146.219 123.002,146.659 122.304,146.539 122.304 C 146.499 122.304,146.278 122.563,146.047 122.880 M192.090 124.398 C 192.090 124.801,192.134 124.966,192.186 124.764 C 192.239 124.563,192.239 124.233,192.186 124.031 C 192.134 123.830,192.090 123.995,192.090 124.398 M250.524 125.131 C 250.526 125.592,250.569 125.755,250.619 125.495 C 250.669 125.234,250.668 124.857,250.615 124.657 C 250.563 124.457,250.522 124.670,250.524 125.131 M148.925 125.690 C 148.911 125.882,148.846 126.212,148.780 126.423 C 148.666 126.786,148.672 126.787,148.899 126.433 C 149.030 126.228,149.096 125.898,149.044 125.700 C 148.958 125.376,148.947 125.375,148.925 125.690 M191.890 127.120 C 191.890 127.639,191.930 127.851,191.980 127.592 C 192.030 127.332,192.030 126.908,191.980 126.649 C 191.930 126.390,191.890 126.602,191.890 127.120 M155.003 127.330 C 155.003 127.503,155.084 127.832,155.183 128.063 C 155.297 128.327,155.363 128.366,155.363 128.168 C 155.363 127.995,155.282 127.665,155.183 127.435 C 155.070 127.171,155.003 127.132,155.003 127.330 M262.653 128.995 C 262.530 129.346,262.475 129.634,262.529 129.634 C 262.671 129.634,263.066 128.546,262.962 128.442 C 262.915 128.394,262.775 128.643,262.653 128.995 M139.267 133.508 C 138.409 134.372,137.754 135.079,137.812 135.079 C 137.869 135.079,138.618 134.372,139.476 133.508 C 140.335 132.644,140.990 131.937,140.932 131.937 C 140.874 131.937,140.125 132.644,139.267 133.508 M277.540 132.880 C 277.542 133.340,277.585 133.504,277.635 133.244 C 277.685 132.983,277.683 132.606,277.631 132.406 C 277.578 132.206,277.537 132.419,277.540 132.880 M200.929 134.800 C 200.607 135.223,200.450 135.503,200.581 135.422 C 200.849 135.256,201.755 134.031,201.610 134.031 C 201.558 134.031,201.252 134.377,200.929 134.800 M172.964 134.764 C 173.084 134.995,173.379 135.419,173.621 135.707 C 173.920 136.064,173.990 136.097,173.842 135.812 C 173.722 135.581,173.427 135.157,173.186 134.869 C 172.886 134.512,172.816 134.479,172.964 134.764 M292.984 135.155 C 293.387 135.593,293.906 136.050,294.136 136.171 C 294.366 136.293,294.508 136.348,294.450 136.294 C 293.111 135.049,292.319 134.433,292.984 135.155 M110.995 135.563 C 110.995 135.599,111.301 135.905,111.675 136.244 L 112.356 136.859 111.741 136.178 C 111.168 135.544,110.995 135.401,110.995 135.563 M257.173 137.277 C 256.315 138.141,255.660 138.848,255.717 138.848 C 255.775 138.848,256.524 138.141,257.382 137.277 C 258.240 136.414,258.895 135.707,258.838 135.707 C 258.780 135.707,258.031 136.414,257.173 137.277 M198.631 137.435 L 197.592 138.534 198.691 137.495 C 199.713 136.529,199.887 136.335,199.730 136.335 C 199.697 136.335,199.202 136.830,198.631 137.435 M307.853 136.956 C 307.853 137.343,307.607 137.876,307.199 138.370 L 306.544 139.162 307.303 138.380 C 307.965 137.698,308.402 136.335,307.958 136.335 C 307.901 136.335,307.853 136.615,307.853 136.956 M187.749 137.736 C 187.173 138.266,186.984 138.506,187.330 138.271 C 187.918 137.869,189.080 136.743,188.885 136.763 C 188.836 136.768,188.325 137.206,187.749 137.736 M219.267 137.696 C 219.658 138.099,220.025 138.429,220.082 138.429 C 220.140 138.429,219.867 138.099,219.476 137.696 C 219.086 137.293,218.719 136.963,218.661 136.963 C 218.604 136.963,218.876 137.293,219.267 137.696 M297.644 137.117 C 298.191 137.160,299.086 137.160,299.634 137.117 C 300.181 137.074,299.733 137.039,298.639 137.039 C 297.545 137.039,297.097 137.074,297.644 137.117 M161.257 138.115 C 161.647 138.518,162.014 138.848,162.072 138.848 C 162.129 138.848,161.857 138.518,161.466 138.115 C 161.075 137.712,160.708 137.382,160.651 137.382 C 160.593 137.382,160.866 137.712,161.257 138.115 M119.306 137.748 C 121.515 137.782,125.191 137.782,127.473 137.748 C 129.756 137.715,127.948 137.687,123.455 137.687 C 118.963 137.687,117.096 137.714,119.306 137.748 M180.471 140.049 C 180.961 140.093,181.762 140.093,182.251 140.049 C 182.741 140.005,182.340 139.968,181.361 139.968 C 180.382 139.968,179.982 140.005,180.471 140.049 M238.901 140.049 C 239.390 140.093,240.191 140.093,240.681 140.049 C 241.170 140.005,240.770 139.968,239.791 139.968 C 238.812 139.968,238.411 140.005,238.901 140.049 M84.188 141.977 C 84.188 142.316,84.263 142.639,84.354 142.695 C 84.445 142.752,84.482 142.475,84.436 142.080 C 84.333 141.199,84.188 141.140,84.188 141.977 M247.853 143.149 C 247.327 143.402,247.310 143.431,247.749 143.325 C 248.037 143.256,248.362 143.115,248.471 143.013 C 248.743 142.759,248.594 142.792,247.853 143.149 M104.356 143.193 C 105.369 143.231,106.971 143.231,107.916 143.192 C 108.861 143.154,108.031 143.122,106.073 143.122 C 104.115 143.123,103.342 143.154,104.356 143.193 M98.272 143.400 C 98.819 143.443,99.715 143.443,100.262 143.400 C 100.809 143.357,100.361 143.322,99.267 143.322 C 98.173 143.322,97.725 143.357,98.272 143.400 M115.236 143.402 C 116.243 143.440,117.893 143.440,118.901 143.402 C 119.908 143.364,119.084 143.332,117.068 143.332 C 115.052 143.332,114.228 143.364,115.236 143.402 M85.840 143.726 C 85.931 143.817,86.893 143.863,87.977 143.829 L 89.948 143.767 87.811 143.664 C 86.635 143.607,85.748 143.635,85.840 143.726 M91.050 143.604 C 91.310 143.654,91.687 143.652,91.887 143.599 C 92.087 143.547,91.874 143.506,91.414 143.508 C 90.953 143.511,90.789 143.554,91.050 143.604 M128.333 143.611 C 129.057 143.652,130.188 143.651,130.846 143.610 C 131.504 143.569,130.911 143.535,129.529 143.535 C 128.147 143.536,127.608 143.570,128.333 143.611 M139.267 143.665 L 134.136 143.781 139.202 143.828 C 142.405 143.857,144.316 143.797,144.398 143.665 C 144.469 143.550,144.498 143.477,144.463 143.502 C 144.427 143.528,142.089 143.601,139.267 143.665 M184.712 144.293 C 184.281 144.431,184.262 144.464,184.607 144.479 C 184.838 144.488,185.168 144.405,185.340 144.293 C 185.707 144.056,185.452 144.056,184.712 144.293 M243.037 144.293 C 242.457 144.441,242.449 144.455,242.932 144.475 C 243.220 144.486,243.597 144.405,243.770 144.293 C 244.126 144.063,243.942 144.063,243.037 144.293 M286.702 144.284 C 286.874 144.401,287.196 144.498,287.417 144.499 C 287.953 144.504,287.786 144.384,287.016 144.212 C 286.557 144.109,286.472 144.128,286.702 144.284 M177.749 144.866 C 178.353 144.909,179.343 144.909,179.948 144.866 C 180.552 144.824,180.058 144.790,178.848 144.790 C 177.639 144.790,177.144 144.824,177.749 144.866 M236.073 144.867 C 236.736 144.908,237.819 144.908,238.482 144.867 C 239.144 144.825,238.602 144.791,237.277 144.791 C 235.953 144.791,235.411 144.825,236.073 144.867 M290.739 144.866 C 291.290 144.910,292.138 144.909,292.624 144.865 C 293.110 144.821,292.660 144.786,291.623 144.786 C 290.586 144.787,290.189 144.823,290.739 144.866 " stroke="none" fill="#525252" fill-rule="evenodd"></path><path id="path4" d="M87.492 66.750 C 87.985 66.795,88.739 66.794,89.168 66.749 C 89.597 66.704,89.194 66.668,88.272 66.669 C 87.351 66.669,87.000 66.706,87.492 66.750 M117.440 66.750 C 117.933 66.795,118.687 66.794,119.115 66.749 C 119.544 66.704,119.141 66.668,118.220 66.669 C 117.298 66.669,116.948 66.706,117.440 66.750 M111.675 66.951 C 111.877 67.003,112.207 67.003,112.408 66.951 C 112.610 66.898,112.445 66.855,112.042 66.855 C 111.639 66.855,111.474 66.898,111.675 66.951 M100.055 67.164 C 100.315 67.214,100.692 67.212,100.892 67.160 C 101.093 67.107,100.880 67.066,100.419 67.069 C 99.958 67.071,99.794 67.114,100.055 67.164 M104.660 67.164 C 104.919 67.213,105.343 67.213,105.602 67.164 C 105.861 67.114,105.649 67.073,105.131 67.073 C 104.613 67.073,104.401 67.114,104.660 67.164 M94.971 105.026 C 94.971 120.346,94.996 126.582,95.026 118.884 C 95.057 111.187,95.057 98.653,95.026 91.031 C 94.996 83.409,94.971 89.707,94.971 105.026 M264.775 117.487 C 264.775 118.120,264.814 118.380,264.862 118.063 C 264.910 117.746,264.910 117.228,264.862 116.911 C 264.814 116.594,264.775 116.853,264.775 117.487 M109.996 131.937 C 109.996 132.340,110.039 132.505,110.092 132.304 C 110.145 132.102,110.145 131.772,110.092 131.571 C 110.039 131.369,109.996 131.534,109.996 131.937 M100.995 143.187 C 101.312 143.235,101.830 143.235,102.147 143.187 C 102.463 143.139,102.204 143.099,101.571 143.099 C 100.937 143.099,100.678 143.139,100.995 143.187 M111.047 143.192 C 111.940 143.232,113.401 143.232,114.293 143.192 C 115.186 143.153,114.455 143.121,112.670 143.121 C 110.885 143.121,110.154 143.153,111.047 143.192 M96.387 143.390 C 96.589 143.443,96.919 143.443,97.120 143.390 C 97.322 143.338,97.157 143.295,96.754 143.295 C 96.351 143.295,96.186 143.338,96.387 143.390 M120.995 143.394 C 121.254 143.444,121.678 143.444,121.937 143.394 C 122.196 143.344,121.984 143.303,121.466 143.303 C 120.948 143.303,120.736 143.344,120.995 143.394 M89.686 143.600 C 89.887 143.653,90.217 143.653,90.419 143.600 C 90.620 143.547,90.455 143.504,90.052 143.504 C 89.649 143.504,89.484 143.547,89.686 143.600 M132.513 143.607 C 132.887 143.653,133.500 143.653,133.874 143.607 C 134.249 143.561,133.942 143.523,133.194 143.523 C 132.445 143.523,132.139 143.561,132.513 143.607 " stroke="none" fill="#747474" fill-rule="evenodd"></path></g></svg>
