<?xml version="1.0" standalone="no"?>
<!DOCTYPE svg PUBLIC "-//W3C//DTD SVG 20010904//EN"
 "http://www.w3.org/TR/2001/REC-SVG-20010904/DTD/svg10.dtd">
<svg version="1.0" xmlns="http://www.w3.org/2000/svg"
 width="387.000000pt" height="387.000000pt" viewBox="0 0 387.000000 387.000000"
 preserveAspectRatio="xMidYMid meet">
<metadata>
Created by potrace 1.16, written by Peter Selinger 2001-2019
</metadata>
<g transform="translate(0.000000,387.000000) scale(0.100000,-0.100000)"
fill="#000000" stroke="none">
<path d="M108 3841 c2 -16 -8 -78 -23 -138 -32 -128 -43 -161 -64 -188 -12
-15 -16 -42 -16 -100 0 -73 2 -80 21 -83 45 -7 64 44 83 234 11 104 41 198 86
266 l25 38 -58 0 -59 0 5 -29z"/>
<path d="M221 3837 c-57 -93 -100 -258 -101 -393 -1 -22 -11 -64 -24 -94 -23
-56 -36 -63 -78 -45 -14 5 -18 2 -18 -13 0 -25 11 -28 78 -28 l53 1 3 50 c2
28 15 75 30 107 17 35 30 86 36 135 5 44 14 92 21 109 30 74 63 141 80 165 26
37 25 39 -20 39 -34 0 -42 -5 -60 -33z"/>
<path d="M348 3813 c-67 -114 -84 -165 -93 -275 -4 -45 -11 -87 -15 -93 -4 -5
-15 -32 -24 -59 -22 -65 -13 -191 13 -181 9 4 40 10 68 14 64 9 73 17 45 37
-12 8 -29 28 -37 44 -17 33 -21 155 -5 165 6 3 10 13 10 21 0 9 14 50 32 92
25 60 45 90 92 137 64 63 141 101 188 92 21 -4 21 -4 -4 -6 -34 -1 -114 -43
-151 -79 -54 -51 -95 -117 -122 -197 -30 -89 -46 -203 -27 -191 7 4 12 15 12
24 0 13 2 13 14 -4 13 -16 18 -17 35 -6 19 11 21 10 21 -18 0 -28 -2 -30 -21
-19 -16 8 -23 8 -29 -1 -6 -9 -9 -9 -13 1 -4 9 -6 10 -6 2 -1 -19 56 -80 91
-98 24 -11 34 -12 45 -4 11 10 11 15 -1 35 -20 30 -37 137 -27 171 10 34 51
100 83 131 46 47 105 74 160 74 103 1 110 -2 140 -57 35 -63 35 -82 1 -98 -16
-6 -36 -21 -45 -32 -22 -27 -46 -8 -29 23 7 14 8 23 1 27 -18 11 -29 -5 -24
-34 6 -28 -16 -68 -69 -126 -40 -45 -67 -84 -67 -97 0 -8 -6 -28 -14 -44 -8
-16 -19 -72 -26 -124 -6 -52 -16 -125 -21 -161 -11 -70 -51 -169 -69 -169 -6
0 -15 -10 -21 -22 -17 -40 -38 -72 -51 -83 -28 -22 -38 -60 -35 -125 3 -36 8
-73 12 -83 4 -9 3 -23 -2 -30 -6 -6 -13 -27 -17 -46 -11 -59 -46 -79 -80 -45
-9 8 -16 12 -16 7 0 -4 -12 6 -27 23 -44 48 -92 150 -99 207 l-6 52 -52 18
c-29 9 -56 17 -59 17 -4 0 -7 -15 -7 -34 0 -31 4 -36 35 -46 53 -18 70 -50 70
-140 0 -99 31 -164 94 -199 29 -16 39 -27 32 -34 -15 -15 -93 35 -124 81 -35
50 -47 92 -47 169 0 53 -3 64 -22 77 -12 9 -26 16 -30 16 -15 0 -9 -125 7
-146 8 -12 29 -50 47 -85 46 -89 70 -121 117 -154 23 -15 41 -34 41 -41 0 -18
-4 -17 -39 1 -47 24 -114 108 -140 174 -13 34 -29 65 -34 68 -13 8 -3 -147 13
-200 11 -36 12 -37 49 -31 35 6 43 2 94 -42 30 -27 66 -57 79 -67 l23 -18 -29
6 c-16 3 -40 15 -53 25 -14 10 -30 17 -38 14 -7 -3 -33 1 -57 9 -44 15 -71 49
-81 98 -2 13 -5 -2 -6 -33 -1 -37 3 -58 10 -58 7 0 27 -16 45 -35 29 -31 36
-34 55 -25 36 20 109 -12 109 -46 0 -7 -20 -34 -44 -58 -52 -54 -136 -193
-136 -225 0 -14 -7 -25 -20 -28 -16 -4 -20 -14 -20 -52 1 -25 7 -57 15 -71 9
-15 14 -53 15 -95 0 -58 4 -77 25 -107 13 -20 35 -61 49 -91 41 -93 87 -107
201 -60 71 29 91 26 110 -15 16 -36 27 -25 22 23 -4 42 -2 47 22 60 17 9 52
12 100 10 63 -2 76 -6 101 -30 15 -14 45 -31 66 -36 22 -5 48 -12 59 -15 11
-3 60 -7 108 -8 49 -2 93 -8 100 -15 6 -6 15 -11 20 -11 18 0 102 -45 120 -64
9 -10 17 -25 17 -33 0 -7 5 -13 10 -13 13 0 13 15 0 62 -9 29 -19 41 -55 58
-25 12 -51 29 -58 38 -6 10 -32 30 -56 45 -43 28 -44 29 -107 16 -59 -12 -70
-11 -133 9 -69 22 -112 54 -92 67 6 3 11 15 11 27 0 16 -5 19 -24 14 -30 -7
-61 24 -51 54 6 19 10 17 52 -25 25 -24 58 -50 73 -57 24 -10 26 -14 14 -26
-16 -15 -10 -32 12 -32 8 0 14 8 14 18 0 15 9 18 63 19 102 1 151 7 165 20 8
7 38 13 70 13 l57 1 -29 24 c-17 13 -66 34 -110 45 -110 30 -226 70 -256 88
-14 9 -58 47 -97 86 -75 73 -90 106 -55 124 26 14 56 -2 98 -53 37 -44 149
-115 184 -115 19 -1 70 -29 53 -30 -7 0 -13 -9 -13 -19 0 -20 32 -37 50 -26
14 9 13 32 -2 38 -7 3 -1 6 13 6 14 1 70 -21 123 -48 53 -28 104 -47 112 -44
10 4 14 -3 15 -28 1 -32 2 -31 14 14 7 27 20 56 29 66 19 21 20 31 5 31 -15 0
-49 -39 -49 -56 0 -8 -6 -11 -15 -8 -8 4 -15 13 -15 21 0 25 -92 107 -190 167
-52 33 -124 87 -160 121 -36 33 -76 70 -90 80 -40 31 -160 176 -166 201 -13
52 9 73 61 60 14 -4 55 -44 96 -94 94 -112 158 -174 241 -229 72 -48 88 -63
65 -63 -38 0 -23 -45 23 -70 27 -14 46 12 25 34 -9 9 -14 16 -10 16 6 0 91
-69 153 -125 41 -36 58 -38 54 -6 -4 39 -36 86 -61 89 -26 4 -38 27 -22 46 6
7 7 16 3 20 -4 4 6 4 21 1 20 -5 33 -2 47 10 24 21 28 2 5 -21 -11 -12 -12
-20 -5 -35 6 -10 15 -19 20 -19 19 0 21 22 6 81 -27 104 -20 116 51 82 42 -20
49 -35 58 -140 l7 -82 -40 -60 c-61 -91 -66 -185 -20 -330 14 -43 27 -65 39
-68 26 -7 26 -53 0 -60 -10 -2 -24 -15 -31 -28 -7 -13 -20 -27 -29 -31 -23
-12 -116 -114 -104 -114 11 0 33 -49 54 -119 17 -58 64 -121 89 -121 12 0 23
-7 26 -15 4 -8 10 -15 15 -15 5 0 27 -11 48 -24 48 -31 132 -56 186 -56 77 0
138 26 189 80 25 27 46 56 46 64 0 35 26 25 85 -34 39 -38 69 -61 80 -58 15 3
87 116 102 161 9 28 27 19 45 -23 9 -22 29 -47 45 -56 30 -18 78 -110 62 -119
-13 -8 -11 -69 2 -82 8 -8 6 -20 -6 -43 -11 -22 -15 -43 -10 -67 9 -51 -29
-97 -94 -113 -28 -6 -55 -9 -61 -5 -14 9 -96 -13 -134 -36 -16 -10 -35 -15
-42 -12 -8 3 -14 0 -14 -6 0 -16 46 -14 73 3 27 17 114 36 167 36 53 0 80 15
113 61 18 27 27 52 27 79 0 22 6 49 12 60 10 16 10 24 0 40 -15 24 -16 76 -1
85 7 5 5 15 -5 31 -9 13 -16 38 -16 56 0 27 -6 36 -32 49 -41 20 -67 55 -74
101 -5 30 -1 46 23 85 30 49 30 49 11 72 -10 13 -20 22 -22 20 -1 -2 -16 -29
-33 -59 -50 -93 -144 -255 -151 -262 -4 -4 -36 17 -72 47 -36 30 -70 54 -76
54 -6 1 -20 -17 -32 -38 -46 -81 -141 -141 -222 -141 -42 0 -127 31 -175 63
-27 17 -65 41 -84 52 -37 22 -40 25 -75 105 -41 93 -41 107 -4 140 18 17 49
46 69 65 l35 36 12 -26 c16 -34 15 -55 -3 -98 -70 -169 133 -346 301 -263 40
20 88 73 111 120 14 30 27 42 58 53 131 44 251 131 312 227 l25 38 -6 237 c-3
130 -6 243 -6 251 0 9 -25 45 -55 80 -64 76 -70 110 -29 159 22 26 23 32 10
37 -9 3 -32 3 -51 0 -58 -11 -166 47 -263 143 -86 85 -85 83 -83 148 l1 42 43
-19 c112 -49 194 -63 382 -64 205 -1 238 6 367 77 138 76 328 275 328 344 0
12 4 24 10 28 14 9 -7 57 -38 83 -42 36 -214 147 -247 159 -16 7 -45 15 -62
18 -48 9 -43 -17 11 -75 46 -49 69 -105 70 -170 1 -47 -10 -100 -23 -113 -6
-6 -11 -27 -11 -47 0 -26 -8 -42 -29 -62 -35 -34 -76 -45 -84 -25 -6 16 -41
13 -64 -5 -17 -14 -63 -20 -63 -9 0 6 -6 8 -13 5 -32 -12 -137 86 -137 128 0
5 -11 25 -25 45 -18 28 -22 40 -13 50 6 8 8 29 4 53 -5 30 0 51 19 92 41 85
69 109 140 122 42 8 65 22 65 38 0 6 -27 7 -72 3 -59 -5 -93 -16 -173 -55 -55
-27 -116 -64 -135 -82 -76 -71 -188 -214 -225 -288 -10 -19 -35 -61 -56 -92
-44 -66 -45 -71 -23 -205 15 -91 19 -101 55 -138 22 -23 39 -51 39 -64 0 -21
-3 -22 -38 -16 -32 5 -44 1 -80 -24 -44 -32 -71 -38 -102 -21 -13 7 -19 6 -24
-5 -3 -9 -12 -12 -21 -9 -9 4 -28 1 -41 -7 -34 -18 -46 1 -41 59 4 34 2 42 -9
38 -20 -8 -44 4 -44 20 0 17 41 19 57 3 8 -8 16 2 28 35 16 41 17 60 6 195 -6
82 -16 162 -21 177 -13 32 -4 84 14 84 7 0 23 12 37 26 21 22 22 27 9 37 -15
12 -40 60 -40 77 0 6 11 10 23 10 32 0 102 52 122 89 8 17 19 58 24 93 12 87
29 121 55 113 91 -28 156 -26 212 7 30 18 108 109 133 156 10 18 9 22 -4 22
-8 0 -15 -4 -15 -8 0 -18 -74 -102 -109 -124 -28 -17 -51 -22 -108 -23 -73 0
-95 7 -76 26 8 8 17 7 33 -1 17 -9 33 -9 69 0 77 20 97 30 132 66 44 45 32 54
-15 10 -20 -20 -53 -40 -74 -46 -48 -13 -109 -13 -118 1 -12 20 16 34 70 34
39 0 60 5 75 19 25 23 29 46 4 24 -37 -32 -118 -34 -106 -2 3 9 20 14 47 15
22 1 32 3 21 6 -46 10 -49 13 -29 28 13 10 15 14 5 15 -9 0 -11 7 -8 21 3 12
-3 43 -13 69 -10 26 -16 50 -14 53 3 3 -3 10 -14 16 -16 9 -28 4 -64 -23 -25
-19 -61 -38 -82 -41 -38 -8 -65 -38 -45 -50 6 -4 -6 -22 -30 -44 -38 -35 -41
-42 -41 -92 0 -30 7 -76 15 -103 19 -64 19 -120 -1 -162 -18 -39 -52 -54 -66
-30 -7 12 -13 13 -33 4 -21 -9 -29 -8 -45 7 -25 23 -21 37 11 46 l24 6 -28 13
c-33 16 -30 34 6 38 29 4 36 26 11 36 -29 11 -71 6 -84 -9 -7 -9 -19 -14 -26
-11 -7 3 -15 -2 -18 -10 -7 -19 -35 -18 -42 1 -4 8 -1 21 5 29 6 7 9 15 6 18
-3 3 4 25 15 49 11 24 20 54 20 66 0 12 10 29 22 37 l22 16 -22 0 c-35 0 -118
46 -141 79 -73 102 -78 209 -15 298 33 46 42 73 27 73 -31 0 -43 124 -19 181
13 30 12 37 -2 62 -17 28 -16 29 8 48 14 11 42 36 63 57 l39 37 -28 3 c-23 3
-34 -4 -57 -32 -36 -45 -60 -45 -87 -1 -17 27 -28 35 -51 35 l-29 0 25 -51
c31 -60 85 -198 85 -216 0 -7 -6 -13 -14 -13 -8 0 -22 22 -32 53 -35 108 -96
227 -115 227 -16 0 -15 -8 15 -62 19 -35 46 -99 60 -143 24 -75 25 -81 9 -92
-35 -26 -71 -9 -65 30 3 13 -4 17 -25 17 -15 0 -23 -4 -18 -8 14 -9 37 -62 27
-62 -12 1 -55 97 -48 108 3 6 2 13 -4 17 -5 3 -10 13 -10 21 0 26 19 15 36
-21 9 -19 20 -35 25 -35 12 0 13 -2 -17 70 -28 68 -47 103 -78 138 -17 20 -29
22 -108 22 -72 0 -88 -3 -88 -15 0 -8 -4 -15 -10 -15 -5 0 -10 7 -10 15 0 13
-22 15 -134 15 l-135 0 -33 -57z m365 -967 c19 -15 22 -37 7 -52 -6 -6 -6 -21
2 -42 11 -28 10 -33 -6 -45 -18 -13 -17 -15 12 -29 37 -19 46 -14 28 16 -8 11
-13 41 -12 66 1 41 3 45 29 48 15 2 27 -1 27 -7 0 -6 -9 -11 -20 -11 -27 0
-25 -28 3 -40 l22 -9 -22 -7 c-32 -9 -29 -26 8 -46 39 -23 66 -22 159 3 83 22
171 19 225 -9 60 -31 206 -145 220 -172 30 -57 18 -67 -27 -23 -47 44 -180
119 -196 109 -6 -3 -8 -14 -6 -24 3 -9 -1 -25 -9 -36 -10 -14 -20 -17 -45 -12
-32 8 -33 14 -9 64 9 18 8 25 -3 33 -25 17 -124 3 -171 -24 -38 -21 -53 -24
-106 -20 -43 4 -63 2 -63 -6 0 -6 19 -11 46 -11 42 0 45 -1 38 -22 -11 -37
-25 -50 -39 -38 -9 8 -15 7 -18 -2 -4 -9 -6 -9 -6 -1 -1 12 17 28 32 28 17 0
6 20 -13 23 -14 2 -23 -4 -30 -22 -10 -27 -29 -35 -31 -13 0 8 -2 8 -5 1 -5
-13 -63 10 -76 30 -4 6 -15 11 -25 11 -12 0 -19 9 -21 28 -5 41 25 35 43 -9
10 -25 19 -34 30 -30 8 3 15 2 15 -2 0 -10 47 -8 57 2 4 4 -3 9 -15 13 -12 3
-22 9 -22 14 0 5 -6 9 -12 9 -23 1 -80 60 -89 93 -13 46 -11 77 5 77 8 0 16
-6 18 -12 3 -7 7 11 11 41 6 49 20 81 36 81 3 0 14 -7 24 -14z m1305 -353 c-2
-99 1 -113 25 -164 15 -31 38 -68 52 -83 14 -15 25 -33 25 -40 0 -19 -119 -40
-180 -33 -53 6 -126 39 -132 59 -8 22 13 112 34 148 11 19 28 49 38 65 73 126
93 150 132 154 4 1 7 -47 6 -106z m-1005 15 c-48 -53 -36 -147 27 -210 29 -30
45 -38 73 -38 47 0 86 15 120 48 42 40 32 10 -12 -36 -28 -29 -49 -41 -77 -44
-50 -6 -105 8 -126 33 -9 10 -21 19 -26 19 -21 0 -40 47 -37 91 2 24 4 53 4
65 1 22 50 93 65 94 5 0 0 -10 -11 -22z m-140 -105 c-5 -84 -2 -106 17 -158
32 -87 31 -90 -13 -88 -42 2 -106 40 -132 79 -30 46 -19 83 50 177 36 48 69
87 74 87 5 0 7 -42 4 -97z m493 -157 c-30 -35 -72 -76 -92 -92 -20 -16 -51
-42 -70 -58 -35 -29 -61 -34 -103 -21 -21 7 -23 6 -16 -16 4 -13 16 -44 27
-67 18 -42 19 -44 2 -57 -16 -11 -16 -15 -5 -29 17 -21 31 -20 31 0 0 12 5 10
20 -9 24 -30 25 -46 5 -53 -20 -8 -19 -31 2 -43 13 -7 18 -23 19 -55 1 -44 0
-46 -25 -46 -31 0 -56 25 -124 121 -32 45 -56 70 -79 78 -96 35 -110 56 -44
66 41 7 62 3 119 -20 29 -12 19 13 -22 54 l-39 39 -73 -5 -74 -4 -62 56 c-63
57 -90 100 -33 51 39 -32 87 -46 142 -39 29 3 39 1 30 -5 -11 -7 -8 -11 12
-14 30 -6 36 -2 36 24 0 10 5 19 10 20 29 4 35 2 36 -12 2 -35 5 -40 19 -40 8
0 15 9 15 20 0 17 3 18 25 8 27 -12 77 3 105 31 19 20 50 40 73 47 9 4 17 10
17 15 0 5 7 6 15 3 8 -4 17 1 21 10 3 9 12 16 20 16 7 0 35 27 61 60 31 39 49
54 51 44 2 -8 -21 -43 -52 -78z m561 -538 c48 -48 82 -88 76 -88 -7 0 -15 5
-18 10 -3 6 -11 10 -16 10 -17 0 4 -27 49 -62 59 -47 128 -132 110 -136 -8 -1
-51 22 -97 53 -45 30 -90 55 -100 55 -9 0 -22 5 -28 11 -14 14 -89 16 -148 5
l-40 -7 35 31 c19 17 52 36 73 42 20 6 37 13 37 15 0 2 -18 39 -40 83 -22 44
-40 84 -40 90 0 21 60 -25 147 -112z m-407 -10 c12 -73 11 -83 -3 -92 -14 -9
-13 -11 5 -20 12 -6 25 -21 29 -33 7 -19 1 -25 -39 -49 -49 -28 -98 -76 -108
-106 -7 -22 -20 -23 -27 -3 -11 27 25 107 68 151 22 24 38 47 34 51 -6 7 -13
120 -10 171 1 6 9 12 20 12 16 0 21 -13 31 -82z m425 -332 c24 -32 25 -36 16
-101 -15 -103 -59 -138 -87 -67 -8 20 -22 50 -30 65 -25 44 -22 96 5 118 35
29 66 24 96 -15z m-290 -56 c12 -23 14 -46 10 -93 -9 -87 -10 -89 -38 -76 -19
9 -32 7 -63 -9 -21 -11 -50 -19 -64 -18 -22 1 -25 6 -28 45 -4 52 13 91 40 91
14 0 18 5 14 18 -10 30 36 72 78 72 29 0 38 -5 51 -30z m484 -192 c-7 -13 -25
-35 -41 -50 -16 -14 -28 -37 -28 -50 0 -32 -53 -114 -79 -123 -23 -7 -79 19
-88 41 -12 31 16 65 75 91 31 15 79 46 106 70 53 47 73 55 55 21z m-462 -197
c41 -15 61 -17 98 -10 25 5 51 11 56 14 5 4 9 -3 9 -15 0 -21 -33 -40 -72 -40
-11 0 -32 -8 -46 -19 -70 -48 -132 -30 -132 38 0 29 5 41 18 44 9 3 17 5 17 6
0 0 23 -7 52 -18z m-227 -62 c0 -11 4 -17 10 -14 15 9 40 -14 40 -35 0 -10 12
-32 26 -49 22 -27 33 -31 73 -31 26 0 56 7 69 16 12 8 32 14 44 12 22 -3 22
-4 -6 -29 -61 -57 -182 -42 -235 28 -14 19 -20 23 -21 12 0 -33 62 -81 119
-92 59 -12 110 3 154 44 64 62 78 49 24 -22 -24 -33 -46 -48 -87 -62 -51 -19
-56 -19 -107 -3 -97 31 -152 111 -138 202 6 45 35 64 35 23z"/>
<path d="M1244 3827 c-21 -24 -49 -49 -61 -56 -25 -13 -27 -19 -13 -41 7 -11
18 -5 57 33 27 27 67 54 93 63 25 9 53 20 63 25 10 6 17 6 17 -1 0 -16 82 -34
102 -21 14 9 16 8 12 -4 -8 -19 -9 -20 60 15 l59 30 -40 0 c-21 0 -45 -6 -52
-12 -11 -10 -13 -10 -7 0 11 19 -44 15 -66 -5 -16 -14 -20 -15 -35 -1 -12 10
-41 16 -84 17 -66 2 -66 2 -105 -42z"/>
<path d="M1815 3841 c-8 -38 -28 -54 -100 -86 -91 -40 -96 -46 -76 -100 14
-41 17 -43 46 -38 49 9 59 19 78 73 19 54 61 90 105 90 16 0 22 6 22 23 0 12
3 32 6 45 6 20 3 22 -34 22 -36 0 -41 -3 -47 -29z"/>
<path d="M2537 3848 c43 -22 183 -166 183 -188 0 -26 33 -80 49 -80 9 0 21 -4
27 -9 5 -5 46 -28 92 -51 49 -25 87 -50 91 -62 7 -21 65 -51 75 -41 3 4 6 26
6 50 0 45 2 47 56 57 26 4 33 1 37 -15 5 -18 8 -19 26 -7 19 11 24 10 46 -15
24 -25 64 -39 50 -17 -3 6 -1 10 4 10 6 0 11 -7 11 -15 0 -8 6 -15 14 -15 7 0
17 -10 21 -22 7 -23 7 -23 18 5 6 15 16 27 23 27 6 0 17 7 24 15 19 23 33 18
26 -10 -5 -18 -2 -25 9 -25 8 0 15 7 15 15 0 27 29 16 32 -12 3 -29 22 -35 61
-18 13 6 17 2 17 -16 0 -15 3 -20 8 -12 11 18 52 4 52 -17 0 -10 -7 -23 -15
-30 -16 -13 -21 -45 -6 -36 12 8 41 -4 41 -16 0 -6 7 -16 16 -23 15 -10 15
-14 -1 -45 -16 -31 -16 -32 0 -26 9 3 25 6 35 6 15 0 18 8 16 63 -2 97 40 129
85 66 16 -23 24 -28 30 -17 6 8 9 -2 9 -29 0 -24 0 -46 1 -50 0 -4 -4 -9 -10
-11 -6 -2 -11 8 -11 22 0 37 -46 107 -65 100 -11 -5 -15 -21 -14 -63 1 -90 5
-95 78 -92 46 2 61 -1 56 -9 -4 -7 -18 -10 -31 -7 -14 2 -27 0 -30 -5 -3 -5
-14 -6 -25 -3 -36 12 -20 -22 32 -69 28 -25 55 -46 60 -46 4 0 8 68 8 150 0
153 -5 170 -38 138 -10 -11 -11 -10 -6 5 4 9 16 17 27 17 16 0 19 6 16 31 -3
27 -10 34 -61 55 -55 24 -60 24 -113 10 -62 -16 -93 -10 -131 26 -44 41 -25
99 43 129 24 11 49 30 55 42 23 42 40 51 99 52 40 0 64 7 84 21 24 17 27 25
24 68 l-3 48 -45 -35 c-74 -56 -87 -61 -117 -42 -25 17 -27 33 -8 78 7 16 2
18 -61 15 -67 -3 -69 -4 -95 -43 -15 -22 -42 -76 -60 -119 -40 -93 -63 -113
-142 -120 -31 -3 -66 -10 -76 -16 -62 -33 -107 2 -167 128 -25 53 -54 113 -64
132 l-19 35 -91 3 c-84 3 -91 1 -86 -15 17 -58 17 -74 3 -97 -14 -20 -69 -44
-64 -27 1 3 -30 36 -68 72 l-70 66 -70 2 -70 1 42 -22z"/>
<path d="M3113 3783 c83 -169 87 -174 141 -153 15 5 47 10 71 10 53 0 76 19
100 83 9 26 32 70 50 98 l34 49 -44 0 c-40 0 -44 -3 -61 -37 -9 -21 -23 -56
-29 -78 -7 -21 -18 -42 -26 -46 -77 -38 -122 -52 -135 -44 -8 6 -36 53 -62
105 -29 57 -54 96 -65 98 -14 3 -9 -14 26 -85z"/>
<path d="M3167 3798 c49 -104 49 -103 65 -106 9 -2 37 7 64 20 39 19 50 30 57
58 5 19 17 46 28 61 10 15 19 30 19 33 0 3 -19 6 -42 6 -39 -1 -46 -5 -70 -40
-39 -57 -92 -52 -118 10 -7 16 -18 30 -25 30 -8 0 -1 -25 22 -72z"/>
<path d="M1965 3678 c-9 -24 -21 -51 -26 -60 -12 -24 -11 -58 1 -58 6 0 10 11
10 24 0 13 6 35 13 49 l14 26 37 -36 c21 -20 46 -54 57 -75 11 -21 21 -38 23
-38 19 0 76 33 76 44 0 16 -101 124 -140 150 -36 24 -45 20 -65 -26z"/>
<path d="M0 3135 l0 -67 35 21 c20 11 57 22 82 24 44 3 48 5 56 36 4 18 6 36
2 39 -3 3 -43 8 -90 10 l-85 5 0 -68z"/>
<path d="M233 3190 c-30 -12 -46 -45 -38 -81 7 -32 6 -32 -48 -20 -45 11 -94
-1 -125 -29 -21 -20 -22 -28 -22 -216 0 -177 2 -195 18 -200 9 -3 24 -9 32
-13 9 -5 29 -11 45 -15 32 -7 30 -10 61 85 4 13 -4 17 -36 22 -47 6 -84 35
-99 77 -11 32 1 61 42 102 17 17 27 38 27 57 0 20 9 37 30 54 18 15 28 32 24
40 -3 8 -1 18 5 22 6 3 11 -1 11 -9 0 -12 11 -16 48 -16 46 0 49 1 62 38 8 20
16 40 18 45 2 4 -3 7 -12 7 -9 0 -16 -8 -16 -20 0 -21 -16 -26 -39 -11 -18 12
-7 41 19 48 11 3 20 10 20 15 0 6 6 8 14 5 8 -3 17 1 20 9 6 16 -25 18 -61 4z"/>
<path d="M3697 3115 c-28 -44 -34 -65 -18 -65 5 0 14 7 21 15 7 8 26 15 42 15
27 0 30 -2 24 -26 -4 -15 -2 -32 5 -40 9 -11 8 -15 -4 -20 -9 -3 -18 -12 -21
-19 -4 -10 2 -11 27 -4 18 5 41 9 51 9 17 0 15 -5 -13 -34 -32 -33 -33 -34
-11 -41 20 -6 21 -9 7 -22 -13 -14 -12 -21 10 -70 26 -60 29 -107 3 -57 -17
33 -40 60 -40 47 0 -5 5 -14 11 -20 8 -8 4 -16 -15 -28 -29 -19 -34 -43 -11
-51 10 -4 13 -14 9 -28 -3 -14 1 -27 10 -35 18 -15 21 -41 6 -41 -5 0 -10 -11
-10 -24 0 -28 42 -66 72 -66 18 0 19 6 15 83 -2 45 -7 93 -11 107 -6 19 -5 22
3 10 8 -11 10 31 8 155 l-2 170 -46 30 c-25 17 -56 44 -70 61 l-24 31 -28 -42z"/>
<path d="M2733 2963 c-7 -2 -68 -12 -135 -21 -96 -13 -145 -15 -223 -8 -71 6
-118 5 -165 -4 -120 -22 -140 -29 -133 -46 6 -17 8 -16 108 6 58 13 330 7 348
-8 7 -5 22 -13 35 -17 12 -3 42 -17 65 -31 40 -23 104 -33 93 -15 -5 7 -54 23
-81 25 -5 1 -19 9 -30 19 -10 10 -25 15 -32 13 -7 -3 -13 1 -13 9 0 18 41 20
58 3 9 -9 12 -8 12 6 0 11 5 16 14 13 7 -3 26 1 41 9 15 8 33 14 40 14 14 0
28 27 17 33 -4 3 -12 2 -19 0z"/>
<path d="M1990 2858 c-72 -41 -132 -92 -168 -142 -30 -42 -117 -206 -111 -209
2 -1 13 -7 25 -13 19 -11 23 -6 55 60 19 39 53 99 76 134 24 34 38 62 33 62
-6 0 -10 7 -10 15 0 17 16 20 25 5 4 -6 20 2 41 19 19 17 47 37 63 45 24 13
41 34 41 52 0 9 -18 2 -70 -28z"/>
<path d="M2965 2861 c-19 -88 0 -168 53 -224 37 -38 101 -77 127 -77 10 0 15
-11 15 -33 0 -26 -6 -36 -25 -45 -75 -34 -87 -170 -22 -240 20 -22 21 -24 5
-65 -79 -202 -214 -488 -248 -524 -49 -53 -53 -13 -9 89 47 109 46 108 69 183
27 86 50 153 79 223 20 51 20 52 2 42 -11 -5 -30 -10 -43 -11 -21 0 -21 -1 -4
-8 17 -7 18 -8 3 -14 -38 -15 -29 55 14 105 24 28 30 31 39 18 8 -12 10 -11
10 9 0 22 -3 23 -40 17 -39 -6 -50 0 -31 20 6 5 13 40 17 79 7 65 6 69 -9 53
-10 -9 -17 -19 -17 -23 0 -11 -82 -129 -119 -170 l-35 -39 25 -7 c13 -4 39 -7
57 -8 41 -1 41 -7 -2 -123 -19 -51 -48 -138 -66 -193 -44 -136 -105 -253 -137
-261 -31 -8 -60 17 -85 74 -10 23 -23 42 -28 42 -6 0 -10 8 -10 18 0 25 -47
72 -73 72 -18 0 -16 -4 16 -25 42 -29 45 -40 20 -68 -17 -19 -17 -20 5 -15 22
6 31 -6 12 -17 -11 -7 -51 12 -62 29 -4 6 -8 26 -8 44 0 30 -12 42 -24 23 -16
-26 110 -254 162 -293 35 -27 57 -61 79 -126 l23 -67 -5 59 c-6 61 -14 84 -41
110 -8 9 -11 16 -6 16 42 0 74 -52 92 -149 6 -35 16 -75 21 -89 14 -36 43
-214 64 -387 16 -135 38 -257 71 -395 9 -36 20 -120 24 -186 13 -177 27 -250
52 -279 22 -25 22 -25 205 -25 l183 0 0 59 c0 80 24 111 86 111 60 0 123 27
135 58 5 14 8 27 5 29 -2 2 -30 -10 -62 -28 -77 -42 -119 -43 -163 -4 -45 41
-131 158 -163 225 -29 58 -59 167 -57 203 1 23 8 0 29 -101 11 -51 25 -82 73
-162 28 -46 27 -45 93 -118 48 -52 62 -62 90 -62 55 0 173 70 174 103 0 16 -8
13 -50 -18 -71 -52 -112 -55 -175 -13 -97 65 -189 239 -188 359 0 124 62 199
165 199 40 1 42 2 24 15 -28 21 -63 19 -105 -7 l-36 -21 25 24 c22 22 23 24 6
27 -28 6 -110 -86 -130 -144 -26 -78 -20 -131 35 -307 58 -187 71 -284 45
-335 -22 -42 -50 -42 -76 1 -19 31 -27 67 -14 67 3 0 15 -11 26 -25 58 -73 49
78 -17 285 -43 135 -51 192 -36 262 14 71 29 102 65 140 14 15 26 29 26 31 0
3 -14 4 -32 2 -24 -2 -34 -8 -39 -26 -4 -13 -15 -51 -25 -84 -29 -97 -34 -146
-18 -184 18 -44 18 -71 -1 -71 -8 0 -15 -8 -15 -17 0 -12 -3 -14 -10 -7 -6 6
-11 36 -13 67 -1 31 -5 57 -9 57 -4 0 -12 26 -18 57 -17 91 -41 186 -52 210
-9 19 -6 33 15 77 32 66 32 66 6 66 -16 0 -20 5 -16 20 4 16 1 18 -22 14 -25
-5 -27 -1 -53 68 -41 112 -41 110 20 130 89 29 153 64 246 135 75 57 92 75
104 111 11 34 25 51 66 78 28 18 63 43 79 55 32 24 35 17 8 -17 -15 -19 -19
-40 -19 -87 0 -39 -5 -73 -16 -92 -21 -40 -21 -46 13 -92 21 -29 28 -48 24
-64 -4 -13 -2 -20 4 -16 5 3 17 -7 27 -23 11 -20 30 -33 56 -40 21 -6 40 -14
42 -18 9 -20 72 -62 93 -62 13 0 37 -11 52 -25 15 -13 33 -29 38 -33 21 -19
68 57 91 147 8 30 24 65 34 77 13 12 20 34 20 57 0 42 0 41 -35 25 -17 -8 -25
-19 -25 -37 0 -20 -14 -36 -63 -72 -88 -65 -123 -81 -158 -74 -35 8 -97 68
-105 102 -15 58 42 109 124 111 27 1 32 -3 32 -24 0 -51 31 -21 77 76 45 95
63 164 63 244 1 57 3 67 12 52 24 -42 -19 -270 -60 -318 -12 -14 -12 -20 -2
-33 21 -25 39 -17 48 23 5 20 17 69 26 107 10 39 24 99 32 135 8 36 19 67 25
68 14 5 11 117 -6 182 -10 39 -12 66 -6 82 5 13 12 72 16 131 l7 107 -28 10
c-24 9 -31 8 -41 -6 -7 -10 -13 -28 -13 -41 0 -13 -4 -23 -10 -23 -5 0 -10 5
-10 10 0 6 -11 15 -25 20 -21 8 -33 5 -66 -18 -23 -15 -73 -45 -113 -67 -52
-29 -79 -53 -103 -87 -34 -52 -63 -158 -63 -232 0 -37 -3 -46 -17 -46 -15 0
-16 -2 -3 -10 8 -5 27 -10 41 -10 14 0 29 -3 32 -6 12 -13 -14 -44 -53 -63
-38 -18 -39 -18 -57 1 -11 13 -14 22 -6 26 13 9 27 52 16 52 -4 0 -17 -7 -27
-15 -11 -8 -23 -15 -27 -15 -3 0 -4 31 -1 69 3 45 1 71 -7 75 -7 5 -11 -2 -11
-17 0 -14 -7 -57 -16 -96 -14 -59 -22 -76 -51 -100 -33 -27 -110 -58 -120 -48
-2 3 7 24 22 47 15 23 38 63 52 88 14 26 63 95 108 153 45 58 91 119 101 134
20 31 23 31 -31 9 -11 -5 -13 -2 -9 10 5 12 2 15 -10 10 -33 -13 0 40 37 61
39 21 47 35 22 35 -9 0 -35 -18 -58 -39 l-43 -40 -11 39 c-7 27 -7 42 1 50 7
7 7 22 -1 51 -8 31 -8 53 3 92 18 68 17 92 -2 112 -15 15 -27 14 -72 -3 -12
-4 -13 20 -10 132 3 75 1 139 -4 142 -4 3 -8 0 -8 -5 0 -34 -74 7 -118 64 -24
32 -32 52 -32 84 0 26 -4 40 -10 36 -5 -3 -10 -23 -10 -44 0 -57 52 -129 112
-155 49 -22 61 -36 30 -36 -31 0 -108 55 -132 95 -17 27 -24 58 -28 111 -5 80
-16 103 -27 55z m271 -806 c7 -22 14 -46 14 -53 0 -7 -24 -45 -53 -85 -30 -39
-85 -119 -123 -177 -86 -132 -82 -126 -89 -118 -4 3 31 82 77 175 46 92 97
198 113 236 16 37 33 66 38 64 5 -1 15 -21 23 -42z"/>
<path d="M2255 2721 c-53 -31 -75 -75 -75 -151 0 -82 17 -127 66 -169 43 -38
73 -51 120 -51 46 0 132 45 144 74 5 13 13 27 18 30 36 22 13 156 -36 216 -27
32 -30 33 -62 22 -45 -16 -45 -16 -80 18 -35 34 -52 36 -95 11z"/>
<path d="M2363 2063 c-13 -2 -23 -9 -23 -14 0 -5 -7 -9 -17 -9 -14 0 -15 -2
-1 -17 16 -18 14 -43 -3 -43 -5 0 -9 8 -9 18 0 14 -2 14 -9 3 -9 -14 -27 -18
-79 -20 -31 -1 -22 -13 27 -37 44 -21 50 -36 24 -62 -16 -16 -15 -17 16 -20
47 -5 56 1 81 53 12 25 29 52 37 60 15 16 9 55 -9 55 -5 0 -8 -7 -4 -15 3 -9
0 -15 -9 -15 -8 0 -15 -8 -16 -17 0 -15 -2 -15 -9 2 -14 32 -12 35 20 47 46
16 32 40 -17 31z"/>
<path d="M2220 1495 c2 -94 21 -318 29 -332 8 -15 13 -10 35 37 31 67 32 94 5
128 -19 24 -19 27 -4 38 21 16 15 37 -30 100 -25 35 -35 43 -35 29z"/>
<path d="M2333 1433 c-5 -12 8 -29 42 -59 l49 -42 -25 -48 c-46 -87 -102 -189
-111 -201 -15 -19 5 -99 24 -95 41 7 69 -98 44 -168 -23 -67 -21 -88 11 -96
34 -9 54 4 76 49 21 42 32 46 47 18 15 -29 12 -73 -6 -100 -17 -23 -16 -58 2
-214 6 -53 5 -59 -11 -55 -21 4 -40 60 -49 150 -6 55 -4 69 17 111 13 26 22
47 20 47 -3 0 -16 -9 -30 -20 -33 -26 -64 -25 -98 2 -29 23 -29 26 -9 151 6
38 -10 97 -27 97 -12 0 -11 -17 1 -25 14 -9 12 -76 -4 -106 -7 -14 -16 -47
-20 -73 -7 -44 -5 -49 25 -77 23 -21 35 -27 44 -19 17 14 42 3 49 -23 4 -12
11 -59 16 -104 14 -127 44 -157 116 -112 19 11 34 18 34 15 0 -13 66 33 76 53
6 12 21 29 32 37 23 16 52 68 52 94 0 10 6 23 14 30 8 6 16 24 18 38 5 47 33
33 36 -18 1 -25 7 -54 11 -65 5 -11 17 -83 26 -160 9 -77 18 -152 20 -168 5
-29 -27 -77 -52 -77 -7 0 -13 -7 -13 -16 0 -9 -9 -18 -20 -21 -10 -3 -22 -13
-25 -23 -3 -10 -12 -21 -20 -24 -8 -3 -15 -17 -15 -31 0 -14 -4 -25 -10 -25
-5 0 -23 -14 -40 -30 l-31 -30 26 0 c15 0 25 6 25 14 0 8 13 16 30 18 23 4 30
1 30 -12 0 -15 14 -17 110 -19 61 0 110 2 110 6 0 3 -6 14 -14 22 -25 30 -46
114 -46 187 0 68 -12 147 -44 294 -28 124 -66 382 -66 442 0 67 -30 217 -56
281 -13 32 -24 64 -24 70 0 8 -13 11 -38 9 -60 -6 -173 33 -231 78 -27 21 -52
44 -56 50 -10 16 -35 12 -42 -7z m379 -233 c10 -12 18 -35 18 -50 0 -15 3 -42
6 -59 6 -31 6 -31 -27 -24 -19 3 -37 10 -40 15 -3 5 -12 8 -20 7 -19 -4 -131
49 -146 69 -23 29 -16 44 12 26 26 -17 32 -10 16 16 -6 8 -8 17 -6 20 2 4 41
5 86 4 72 -1 85 -4 101 -24z"/>
<path d="M0 1280 c0 -8 8 -33 18 -55 10 -22 27 -67 37 -99 22 -67 71 -126 104
-126 12 0 47 13 79 29 64 32 86 29 102 -15 l9 -24 26 26 c30 30 31 49 5 91
-21 36 -21 36 -117 -15 -50 -26 -104 -28 -140 -5 -15 10 -40 48 -60 91 -38 84
-63 125 -63 102z"/>
<path d="M0 1120 c0 -67 5 -95 20 -125 12 -23 20 -59 20 -87 0 -26 5 -48 10
-48 13 0 90 48 90 56 0 4 -7 1 -15 -6 -18 -15 -35 -5 -35 22 0 17 5 20 30 16
38 -6 38 3 0 26 -40 23 -56 49 -90 148 l-29 83 -1 -85z"/>
<path d="M1170 773 c0 -38 5 -106 10 -153 11 -92 26 -429 24 -547 -1 -66 1
-73 19 -73 19 0 20 4 12 92 -4 51 -11 190 -16 308 -5 118 -13 258 -18 310 -5
52 -10 103 -10 113 -1 9 -5 17 -11 17 -6 0 -10 -29 -10 -67z"/>
<path d="M3299 757 c-28 -18 -37 -33 -47 -79 -12 -49 -12 -63 2 -110 32 -112
107 -198 204 -238 l33 -13 64 65 c36 36 65 73 65 82 0 26 -13 17 -52 -34 -47
-63 -76 -77 -118 -60 -47 20 -127 102 -150 155 -11 26 -21 72 -21 102 -1 47 2
58 27 84 23 24 36 29 74 29 27 0 61 -8 84 -21 38 -20 66 -20 66 1 0 5 -6 10
-14 10 -7 0 -39 11 -70 25 -70 31 -103 31 -147 2z"/>
<path d="M3325 706 c-13 -13 -27 -35 -30 -49 -9 -34 18 -118 54 -171 29 -42
111 -106 137 -106 23 0 69 47 97 99 27 49 27 52 13 98 -14 45 -15 46 -15 15
-1 -41 -34 -112 -66 -142 -21 -19 -29 -21 -47 -13 -40 19 -105 81 -122 117
-54 113 30 198 114 115 29 -29 32 -30 49 -15 10 9 25 16 35 16 10 0 16 6 13
13 -2 7 -17 11 -36 9 -17 -1 -48 7 -68 18 -52 27 -98 26 -128 -4z"/>
<path d="M2655 440 c-28 -27 -54 -50 -59 -50 -6 0 -22 -11 -36 -25 -29 -28
-100 -41 -131 -24 -31 16 -36 2 -9 -26 13 -14 35 -25 50 -25 14 0 31 -5 37
-11 16 -16 59 0 97 39 20 19 36 40 36 45 0 5 11 23 25 39 31 36 59 88 48 88
-5 0 -31 -22 -58 -50z"/>
<path d="M2327 297 c-9 -15 -17 -31 -17 -38 0 -6 37 -67 82 -135 56 -84 89
-124 101 -124 17 0 17 1 -2 26 -23 29 -21 36 29 119 20 33 40 69 44 79 6 19 6
19 -12 3 -20 -19 -52 -23 -52 -7 0 6 -6 10 -13 10 -25 0 -102 42 -123 67 l-20
25 -17 -25z"/>
<path d="M2294 222 c-6 -4 -14 -15 -17 -25 -4 -11 -15 -21 -25 -24 -10 -2 -22
-14 -27 -26 -9 -20 -18 -22 -84 -23 -60 -1 -77 -5 -88 -20 -21 -29 -16 -42 29
-74 l41 -30 160 0 159 0 -16 22 c-13 19 -66 107 -112 188 -5 10 -15 16 -20 12z"/>
</g>
</svg>
